<svg width="64" height="35" viewBox="0 0 64 35" fill="none" xmlns="http://www.w3.org/2000/svg">
<path d="M56.2126 0.242579H7.82655C5.80314 0.242579 3.86262 1.04637 2.43185 2.47713C1.00109 3.9079 0.197311 5.84844 0.197311 7.87184V19.9138C0.197311 21.9372 1.00109 23.8777 2.43185 25.3085C3.86262 26.7393 5.80314 27.543 7.82655 27.543H8.32764V34.4207L16.0781 27.543H56.2126C58.236 27.543 60.1765 26.7393 61.6073 25.3085C63.038 23.8777 63.8418 21.9372 63.8418 19.9138V7.87184C63.8418 5.84844 63.038 3.9079 61.6073 2.47713C60.1765 1.04637 58.236 0.242579 56.2126 0.242579Z" fill="white"/>
<path d="M56.2129 0.242657H56.6332C57.0071 0.247718 57.3801 0.282857 57.7485 0.347725C57.9909 0.396216 58.2657 0.468945 58.5566 0.541682C58.8763 0.643624 59.1894 0.765089 59.4941 0.905375C60.2632 1.25368 60.9681 1.72908 61.5792 2.31161C62.3489 3.04275 62.9621 3.92261 63.3815 4.89781C63.8474 6.07368 64.0542 7.33622 63.9876 8.59928C63.9876 11.2905 63.9876 14.3616 63.9876 17.7722C63.9876 18.6289 63.9876 19.4936 63.9876 20.3988C63.8971 21.8652 63.3938 23.2761 62.5358 24.4687C61.6778 25.6614 60.5001 26.5871 59.1385 27.139C58.1611 27.5255 57.1184 27.7203 56.0674 27.7129H52.8751H46.1995H16.0946L16.232 27.6563L8.4896 34.542L8.13399 34.8491V27.5027L8.34413 27.7129C6.83202 27.7826 5.33006 27.433 4.00418 26.7026C2.70385 25.9634 1.63702 24.8742 0.925003 23.5588C0.586619 22.9043 0.334007 22.2089 0.173398 21.4898C0.0412857 20.7785 -0.0156182 20.0552 0.00366119 19.332C0.00366119 17.9176 0.00366119 16.5114 0.00366119 15.1294V8.96297C0.00366119 8.29218 0.00366711 7.62138 0.06024 6.93442C0.21933 5.60084 0.717318 4.33023 1.50675 3.2437C2.29618 2.15717 3.35073 1.29094 4.5699 0.727573C5.74609 0.196761 7.03076 -0.0496481 8.31989 0.00828928H18.9718H31.5067L49.6019 0.0729455H54.4995H55.7765C56.0674 0.0729455 56.2129 0.0729455 56.2129 0.0729455H55.7765H54.4995H49.6019L31.5067 0.145679H18.9718H8.3118C7.07799 0.0848182 5.84755 0.320368 4.72346 0.832628C3.56494 1.36715 2.56327 2.1905 1.8146 3.22364C1.06593 4.25678 0.595409 5.46502 0.448177 6.73238C0.395385 7.39369 0.379198 8.05742 0.399688 8.72052V19.0895C0.380188 19.7856 0.434354 20.4818 0.56131 21.1666C0.71754 21.8462 0.959236 22.5034 1.28061 23.1224C1.95415 24.3683 2.96534 25.3991 4.19814 26.0965C5.46047 26.7891 6.88977 27.1192 8.32798 27.0501H8.53809V34.146L8.18248 33.9925L15.933 27.1148L15.9895 27.0582H16.0704H46.1752H52.8509C55.0087 26.9936 57.1585 27.3249 58.9931 26.5248C60.3032 25.9989 61.4375 25.1124 62.2643 23.968C63.091 22.8237 63.5765 21.4684 63.6644 20.0593C63.7129 19.1865 63.6644 18.2975 63.6644 17.4489C63.6644 14.0384 63.6644 10.9834 63.6644 8.27601C63.7398 7.03785 63.5496 5.79787 63.1067 4.63918C62.7052 3.68207 62.1141 2.81611 61.3691 2.09341C60.7768 1.51397 60.091 1.03855 59.3406 0.687161C59.0434 0.546099 58.7385 0.421973 58.4273 0.315391L57.6191 0.105267C57.1484 0.127714 56.6791 0.173566 56.2129 0.242657Z" fill="#263238"/>
<path d="M15.1085 13.4162L16.6602 14.2244L15.7793 15.6791L14.1629 14.7255L14.2114 16.4712H12.4819L12.5223 14.7255L10.906 15.6791L10.0412 14.2244L11.5848 13.4162L10.0412 12.5676L10.906 11.1048L12.5223 12.0827L12.4819 10.3128H14.2114L14.1629 12.0827L15.7793 11.1048L16.6602 12.5676L15.1085 13.4162Z" fill="#E0E0E0"/>
<path d="M22.3013 13.4162L23.853 14.2244L22.9721 15.6791L21.3557 14.7255L21.4042 16.4712H19.6747V14.7255L18.0583 15.6791L17.1936 14.2244L18.7372 13.4162L17.1936 12.5676L18.0583 11.1048L19.6747 12.0827V10.3128H21.4042L21.3557 12.0827L22.9721 11.1048L23.853 12.5676L22.3013 13.4162Z" fill="#E0E0E0"/>
<path d="M29.4942 13.4162L31.0459 14.2244L30.165 15.6791L28.5486 14.7255L28.589 16.4712H26.8595L26.8999 14.7255L25.2835 15.6791L24.4188 14.2244L25.9624 13.4162L24.4188 12.5676L25.2835 11.1048L26.8999 12.0827L26.8595 10.3128H28.589L28.5486 12.0827L30.165 11.1048L31.0459 12.5676L29.4942 13.4162Z" fill="#E0E0E0"/>
<path d="M36.6869 13.4162L38.2386 14.2244L37.3577 15.6791L35.7413 14.7255L35.7818 16.4712H34.0522L34.0926 14.7255L32.4763 15.6791L31.6115 14.2244L33.1632 13.4162L31.6115 12.5676L32.4763 11.1048L34.0926 12.0827L34.0522 10.3128H35.7818L35.7413 12.0827L37.3577 11.1048L38.2386 12.5676L36.6869 13.4162Z" fill="#E0E0E0"/>
<path d="M43.8798 13.4162L45.4315 14.2244L44.5506 15.6791L42.9342 14.7255L42.9746 16.4712H41.2774L41.3178 14.7255L39.7015 15.6791L38.8367 14.2244L40.3884 13.4162L38.8529 12.5676L39.7177 11.1048L41.334 12.0827L41.2936 10.3128H43.0231L42.9827 12.0827L44.5991 11.1048L45.48 12.5676L43.8798 13.4162Z" fill="#E0E0E0"/>
<path d="M51.073 13.4158L52.6247 14.224L51.7842 15.7515L50.1678 14.7978V16.5435H48.4383L48.4787 14.7978L46.9351 15.7515L46.0703 14.2967L47.622 13.4886L46.0703 12.64L46.9351 11.1772L48.5514 12.1551L48.511 10.3851H50.1678V12.1551L51.7842 11.1772L52.6651 12.64L51.073 13.4158Z" fill="#E0E0E0"/>
</svg>
