<svg width="107" height="186" viewBox="0 0 107 186" fill="none" xmlns="http://www.w3.org/2000/svg">
<path d="M16.07 4.30254C25.5418 9.207 32.7982 17.6513 38.0157 26.9465C43.2332 36.2417 46.6045 46.4439 49.9357 56.5739L52.8494 108.805C41.8365 90.0703 32.9908 68.0123 30.6068 46.4279L37.9354 45.7777C33.0229 45.0232 28.8971 41.4672 26.2723 37.2451C23.6475 33.0229 22.2588 28.1506 20.9745 23.3585L29.9165 24.6669C22.8569 19.909 17.8988 12.617 16.07 4.30254Z" fill="#455A64"/>
<g opacity="0.3">
<path d="M16.07 4.30254C25.5418 9.207 32.7982 17.6513 38.0157 26.9465C43.2332 36.2417 46.6045 46.4439 49.9357 56.5739L52.8494 108.805C41.8365 90.0703 32.9908 68.0123 30.6068 46.4279L37.9354 45.7777C33.0229 45.0232 28.8971 41.4672 26.2723 37.2451C23.6475 33.0229 22.2588 28.1506 20.9745 23.3585L29.9165 24.6669C22.8569 19.909 17.8988 12.617 16.07 4.30254Z" fill="black"/>
</g>
<path d="M54.5191 121.046C54.5191 121.046 78.4313 92.4301 78.1584 65.1064H68.5261C68.5261 65.1064 79.0173 58.2033 78.1584 54.3423C77.2995 50.4814 77.0507 35.8804 77.0507 35.8804L68.221 38.0878C68.221 38.0878 74.8433 34.7727 75.67 29.5311C76.4968 24.2895 73.7436 0 73.7436 0C73.7436 0 62.9795 11.318 59.6643 22.9089C56.3492 34.4998 47.6239 48.0171 50.2166 83.3436C52.8093 118.67 54.5191 121.046 54.5191 121.046Z" fill="#455A64"/>
<path d="M42.3581 123.751C42.3581 123.751 16.4552 106.493 10.6999 84.4672L18.4619 82.3481C18.4619 82.3481 8.5246 79.0972 8.33998 75.8142C8.15536 72.5312 5.1854 60.7075 5.1854 60.7075L12.7708 60.547C12.7708 60.547 6.71854 59.3349 4.90445 55.2973C3.09037 51.2598 0 31.1363 0 31.1363C0 31.1363 11.1253 37.8789 16.3268 46.4757C21.5282 55.0726 31.4736 64.0387 37.1486 92.9918C42.8237 121.945 42.3581 123.751 42.3581 123.751Z" fill="#455A64"/>
<path d="M67.1692 24.9317C67.1648 25.0343 67.1514 25.1364 67.1291 25.2367L66.9605 26.1277C66.8 26.9304 66.5752 28.0783 66.2782 29.5392C65.9812 31.0001 65.612 32.8302 65.2187 34.9413C64.8253 37.0523 64.3437 39.4444 63.8782 42.1013C62.8909 47.4151 61.8393 53.7564 60.7557 60.8201C59.672 67.8838 58.6366 75.6539 57.6733 83.8413C56.7101 92.0288 56.0037 99.847 55.4178 106.967C54.8318 114.087 54.4385 120.508 54.1897 125.902C54.0371 128.6 53.9488 131.04 53.8606 133.183C53.7723 135.326 53.708 137.196 53.6679 138.681C53.6278 140.166 53.5716 141.338 53.5475 142.157C53.5475 142.542 53.5475 142.839 53.5074 143.064C53.5159 143.166 53.5159 143.268 53.5074 143.369C53.4986 143.268 53.4986 143.166 53.5074 143.064C53.5074 142.839 53.5074 142.542 53.5074 142.157C53.5074 141.354 53.5074 140.174 53.5074 138.681C53.5074 137.188 53.5636 135.318 53.6358 133.175C53.708 131.032 53.7642 128.583 53.9007 125.886C54.1174 120.484 54.5107 114.063 55.0405 106.935C55.5703 99.8069 56.3328 91.9887 57.272 83.7932C58.2111 75.5977 59.3028 67.8196 60.3784 60.7559C61.454 53.6922 62.5698 47.3589 63.5892 42.0531C64.0708 39.3882 64.5685 36.9962 64.9939 34.8931C65.4193 32.79 65.7966 30.984 66.1257 29.507C66.4548 28.0301 66.7036 26.9063 66.8802 26.1116L67.0889 25.2287C67.1069 25.1275 67.1338 25.0281 67.1692 24.9317Z" fill="#263238"/>
<path d="M57.8019 138.569C57.8019 138.569 79.6833 113.742 86.4741 98.7395L81.3449 96.5482C85.0614 97.1582 88.8742 95.5608 91.7799 93.1367C94.6857 90.7126 96.7807 87.5179 98.8516 84.3713L92.0769 83.2636C98.2835 81.4875 103.569 77.3919 106.838 71.8252C98.8597 73.1416 91.6515 77.5163 85.7035 82.9907C80.9869 87.5176 76.7008 92.4728 72.9006 97.7923C70.9881 100.355 69.3243 103.094 67.9319 105.972C64.2556 113.573 57.7859 129.459 57.8019 138.569Z" fill="#455A64"/>
<path d="M10.3708 45.5848C10.4255 45.6581 10.4738 45.736 10.5153 45.8176C10.6036 46.0022 10.732 46.2269 10.8845 46.5239C11.2216 47.1661 11.6872 48.0812 12.2892 49.2451C13.5093 51.605 15.219 55.0485 17.2659 59.343C19.3128 63.6374 21.6727 68.7746 24.1851 74.5299C26.6976 80.2852 29.3304 86.6827 31.9552 93.4413C34.58 100.2 36.8918 106.718 38.9306 112.666C40.9694 118.614 42.6631 124.008 44.0277 128.559C45.3923 133.11 46.4358 136.811 47.1422 139.379L47.9448 142.333L48.1455 143.136C48.172 143.222 48.1882 143.311 48.1937 143.401C48.1499 143.321 48.12 143.234 48.1054 143.144C48.0412 142.96 47.9609 142.703 47.8646 142.39C47.6639 141.691 47.3749 140.704 47.0057 139.452C46.2672 136.899 45.1675 133.215 43.7949 128.68C42.4223 124.144 40.6403 118.766 38.6095 112.818C36.5787 106.87 34.2188 100.393 31.61 93.626C29.0013 86.8593 26.3524 80.4859 23.8801 74.7145C21.4078 68.9432 19.0639 63.7979 17.0412 59.4634C15.0184 55.1288 13.3728 51.7013 12.225 49.3173L10.8925 46.5641C10.748 46.259 10.6357 46.0263 10.5554 45.8416C10.4844 45.7632 10.4225 45.677 10.3708 45.5848Z" fill="#263238"/>
<path d="M55.9397 149.213C55.9237 149.058 55.9237 148.902 55.9397 148.747C55.9397 148.394 56.02 147.944 56.0681 147.415C56.1163 146.885 56.2126 146.13 56.341 145.32C56.4695 144.509 56.5899 143.57 56.7906 142.55C57.1437 140.503 57.6815 138.087 58.3959 135.43C59.1103 132.773 60.0013 129.9 61.1251 126.93C62.2489 123.96 63.485 121.199 64.6971 118.734C65.9092 116.27 67.1052 114.111 68.2129 112.313C68.7346 111.414 69.2564 110.635 69.7059 109.905C70.1554 109.174 70.5086 108.628 70.8859 108.155C71.2631 107.681 71.4558 107.352 71.6885 107.071C71.7721 106.937 71.8718 106.813 71.9855 106.702C71.9239 106.848 71.8487 106.988 71.7608 107.119L71.0464 108.243C70.7253 108.733 70.348 109.327 69.9226 110.033C69.4972 110.74 68.9915 111.526 68.4858 112.441C67.4423 114.223 66.2704 116.399 65.0663 118.863C63.8623 121.327 62.6582 124.08 61.5425 127.034C60.4268 129.988 59.5277 132.862 58.7893 135.495C58.0508 138.127 57.513 140.536 57.1197 142.566C56.9029 143.578 56.7584 144.501 56.614 145.312C56.4695 146.122 56.3571 146.821 56.2688 147.399C56.1805 147.976 56.1163 148.37 56.0601 148.715C56.0402 148.885 55.9998 149.052 55.9397 149.213Z" fill="#263238"/>
<path d="M74.9555 143.369H27.0668V153.138H74.9555V143.369Z" fill="#235DFF"/>
<path d="M70.3962 153.138L65.2188 186H36.2817L31.4495 153.138H70.3962Z" fill="#235DFF"/>
<path d="M30.0049 153.138C30.0049 153.025 39.0673 152.929 50.2408 152.929C61.4143 152.929 70.4767 153.025 70.4767 153.138C70.4767 153.25 61.4143 153.346 50.2408 153.346C39.0673 153.346 30.0049 153.258 30.0049 153.138Z" fill="#263238"/>
</svg>
