<svg width="354" height="316" viewBox="0 0 354 316" fill="none" xmlns="http://www.w3.org/2000/svg">
<path d="M70.8467 0H2.2788V113.491H70.8467V0Z" fill="#E0E0E0"/>
<path d="M68.5679 0H0V113.491H68.5679V0Z" fill="#EBEBEB"/>
<path d="M65.6476 2.30273H2.92067V111.196H65.6476V2.30273Z" fill="white"/>
<path d="M53.4278 16.4479H14.8593V97.0429H53.4278V16.4479Z" fill="#EBEBEB"/>
<path d="M14.8592 68.52C14.7709 60.994 21.5427 53.6446 28.9964 52.5935C32.5508 52.0961 36.3298 52.8021 39.6515 51.4382C45.5808 49.0311 47.4663 41.1281 53.4357 38.7933L53.7085 97.0431H14.8592V68.52Z" fill="#E0E0E0"/>
<path d="M342.286 5.75292V60.1756H264.122L261.306 6.13003L342.286 5.75292Z" fill="#E0E0E0"/>
<path d="M261.306 6.12997V60.0552L339.47 60.0552V6.12997L261.306 6.12997Z" fill="white"/>
<path d="M339.847 60.4322H260.937V5.76074H339.847V60.4322ZM261.683 59.686H339.101V6.50692H261.683V59.686Z" fill="#E0E0E0"/>
<path d="M331.005 12.8297H269.77V53.3558H331.005V12.8297Z" fill="white"/>
<path d="M331.005 12.8292H330.708H329.834H326.472L313.851 12.8773L269.771 12.9576L269.955 12.781C269.955 25.1692 269.955 38.8892 269.955 53.3072L269.762 53.1147H330.997L330.845 53.2671C330.845 40.9352 330.909 30.8016 330.925 23.7811C330.925 20.2669 330.925 17.5149 330.965 15.6294C330.965 14.6986 330.965 14.0247 330.965 13.4871C330.965 12.9495 330.965 12.7409 330.965 12.7409C330.965 12.7409 330.965 12.9816 330.965 13.455C330.965 13.9284 330.965 14.6505 330.965 15.5652C330.965 17.4426 330.965 20.1866 331.005 23.6848C331.005 30.7535 331.053 40.895 331.085 53.2671V53.4276H330.933H269.698H269.506V53.227C269.506 38.7849 269.506 25.0889 269.506 12.7008V12.6206H269.682L313.883 12.7088L326.456 12.757H329.786H330.917L331.005 12.8292Z" fill="#E0E0E0"/>
<path d="M261.306 5.97763C261.788 6.21559 262.24 6.50911 262.654 6.85218C263.456 7.42986 264.539 8.24825 265.719 9.18699C266.898 10.1257 267.933 11.0163 268.655 11.6903C269.077 12.0182 269.452 12.4014 269.771 12.8296C268.285 11.7899 266.852 10.6759 265.478 9.49187C264.016 8.40791 262.623 7.23424 261.306 5.97763Z" fill="#E0E0E0"/>
<path d="M339.47 6.13004C338.178 7.39932 336.794 8.57127 335.33 9.63626C333.957 10.8104 332.501 11.883 330.973 12.8456C332.262 11.5855 333.638 10.4166 335.089 9.34742C336.471 8.17243 337.935 7.09725 339.47 6.13004Z" fill="#E0E0E0"/>
<path d="M339.414 60.063L330.692 53.0024L339.414 60.063Z" fill="white"/>
<path d="M330.692 53.0024C332.263 54.0272 333.761 55.1585 335.177 56.3883C336.67 57.5175 338.085 58.7451 339.414 60.063C337.84 59.046 336.341 57.9171 334.929 56.6852C333.437 55.5522 332.022 54.322 330.692 53.0024Z" fill="#E0E0E0"/>
<path d="M261.306 60.055C262.582 58.8081 263.944 57.6526 265.382 56.5969C266.737 55.4369 268.177 54.3802 269.69 53.4357C268.415 54.6826 267.053 55.8381 265.615 56.8938C264.259 58.0538 262.819 59.1105 261.306 60.055Z" fill="#E0E0E0"/>
<path d="M282.207 25.4661V39.0336H320.735V25.4661H282.207Z" fill="#E0E0E0"/>
<path d="M278.043 235.952C274.368 233.651 270.216 232.221 265.904 231.772C263.922 231.571 261.747 231.627 260.159 232.831C259.976 232.938 259.824 233.091 259.72 233.276C259.615 233.461 259.562 233.67 259.565 233.882C259.66 234.18 259.859 234.434 260.127 234.596C265.069 238.367 272.539 238.84 278.043 235.952Z" fill="#E0E0E0"/>
<path d="M277.73 235.607C274.918 233.546 272.295 231.24 269.891 228.715C267.48 226.17 265.784 223.034 264.973 219.624C264.816 219.119 264.769 218.587 264.835 218.062C264.902 217.538 265.08 217.033 265.358 216.583C271.608 221.462 276.518 227.816 277.73 235.607Z" fill="#E0E0E0"/>
<path d="M277.979 235.904C277.396 232.493 277.445 229.004 278.123 225.61C278.821 222.194 280.777 219.164 283.603 217.121C284.686 219.641 284.221 222.553 283.459 225.193C282.283 229.278 280.445 233.143 278.019 236.634" fill="#E0E0E0"/>
<path d="M284.1 246.904C280.386 247.353 277.144 249.311 274.368 251.83C271.583 254.358 269.64 257.679 268.8 261.346C272.451 261.121 275.54 258.546 277.786 255.665C280.033 252.785 281.589 249.616 284.052 246.92" fill="#E0E0E0"/>
<path d="M285.433 248.637C283.969 244.92 283.456 240.897 283.941 236.932C284.426 232.967 285.893 229.185 288.209 225.931C290.327 233.465 289.549 241.977 285.433 248.637Z" fill="#E0E0E0"/>
<path d="M293.528 258.281C290.128 258.067 286.741 258.859 283.788 260.559C280.836 262.258 278.45 264.79 276.928 267.837C276.794 268.024 276.712 268.243 276.693 268.472C276.673 268.7 276.715 268.93 276.815 269.137C276.958 269.277 277.133 269.38 277.325 269.436C277.516 269.492 277.719 269.499 277.914 269.458C281.188 269.249 284.084 267.284 286.483 265.037C288.882 262.79 290.961 260.223 293.6 258.273" fill="#E0E0E0"/>
<path d="M293.271 257.751C291.529 252.143 291.42 246.153 292.959 240.485C293.568 238.263 294.563 235.92 296.649 234.869C296.731 234.815 296.823 234.778 296.92 234.761C297.017 234.745 297.116 234.749 297.211 234.772C297.378 234.857 297.504 235.004 297.564 235.182C298.256 236.738 298.556 238.441 298.439 240.14C298.307 241.831 298.039 243.508 297.636 245.155C296.986 248.22 296.641 251.517 294.964 254.157C294.565 254.795 294.206 255.457 293.889 256.139C293.576 256.805 293.576 257.045 293.279 257.575" fill="#E0E0E0"/>
<path d="M314.694 260.945C313.089 254.912 314.79 247.586 318.601 242.636C318.882 242.275 319.251 241.882 319.708 241.922C320.406 241.986 320.591 242.925 320.559 243.623C320.272 249.834 318.239 255.838 314.694 260.945Z" fill="#E0E0E0"/>
<path d="M316.627 262.269C323.969 264.179 332.377 262.317 338.483 257.824C334.826 255.982 330.642 255.469 326.648 256.372C322.701 257.27 319.09 259.044 316.627 262.269Z" fill="#E0E0E0"/>
<path d="M318.256 258.249C322.364 251.55 330.243 247.177 338.09 246.776C337.192 249.985 334.568 252.448 331.607 253.949C328.647 255.449 325.341 256.099 322.084 256.733C320.816 256.982 319.083 257.254 318.256 258.249Z" fill="#E0E0E0"/>
<path d="M315.103 238.736C316.362 234.963 317.225 231.07 317.678 227.118C317.983 223.163 317.422 219.031 315.368 215.629C311.533 223.059 311.139 231.732 315.031 239.137" fill="#E0E0E0"/>
<path d="M328.029 232.205C332.514 224.045 341.668 217.53 350.935 216.616C347.365 225.522 337.617 232.398 328.029 232.205Z" fill="#E0E0E0"/>
<path d="M325.205 233.802C331.896 234.821 337.601 239.097 343.859 241.689C345.17 242.317 346.621 242.594 348.071 242.491C348.746 242.481 349.401 242.265 349.949 241.871C350.497 241.478 350.911 240.926 351.136 240.29C351.362 239.655 351.387 238.965 351.209 238.314C351.031 237.664 350.659 237.083 350.141 236.65C349.254 235.833 348.212 235.203 347.076 234.797C340.265 231.957 332.955 231.884 325.782 233.609" fill="#E0E0E0"/>
<path d="M321.329 238.496C322.845 238.929 323.359 239.715 324.538 240.742C328.632 244.219 333.472 246.704 338.684 248.003C339.221 248.14 339.935 248.196 340.2 247.707C340.465 247.217 340.136 246.76 339.831 246.383C337.565 243.721 334.624 241.717 331.318 240.582C328.053 239.37 325.228 237.902 321.329 238.215" fill="#E0E0E0"/>
<path d="M316.956 210.141C319.701 212.673 322.944 214.603 326.479 215.807C330.014 217.01 333.761 217.461 337.48 217.129C337.821 217.134 338.152 217.015 338.411 216.792C338.933 216.231 338.315 215.364 337.713 214.891C331.679 210.189 324.37 208.239 316.956 210.141Z" fill="#E0E0E0"/>
<path d="M322.139 208.247C325.773 205.575 329.988 203.799 334.438 203.064C338.889 202.33 343.45 202.657 347.75 204.019C344.4 207.126 340.101 209.015 335.546 209.379C331.046 209.785 326.508 209.403 322.139 208.247Z" fill="#E0E0E0"/>
<path d="M320.085 195.217C319.5 189.192 319.877 184.442 319.46 178.368C319.46 177.887 319.323 177.301 318.874 177.125C318.24 176.884 317.719 177.662 317.51 178.304C316.632 181.107 316.406 184.074 316.851 186.978C317.296 189.882 318.4 192.645 320.077 195.057" fill="#E0E0E0"/>
<path d="M319.644 195.883C323.579 193.341 326.972 190.044 329.625 186.183C331.591 183.487 333.252 180.262 332.835 176.948C331.443 176.984 330.076 177.322 328.829 177.94C327.582 178.558 326.485 179.441 325.614 180.526C323.891 182.706 322.639 185.219 321.939 187.908C321.136 190.556 320.583 193.276 319.644 195.883Z" fill="#E0E0E0"/>
<path d="M329.448 193.147C338.425 189.829 346.739 184.939 354 178.705C351.064 177.526 347.71 178.232 344.773 179.419C338.082 182.123 332.602 186.688 329.32 193.115" fill="#E0E0E0"/>
<path d="M322.404 199.181C326.937 199.67 331.543 199.983 336.044 199.245C340.545 198.507 344.637 196.75 348.769 195.017C349.13 194.913 349.439 194.678 349.635 194.359C349.701 194.167 349.706 193.959 349.65 193.764C349.594 193.569 349.48 193.396 349.323 193.268C349.005 193.019 348.634 192.846 348.239 192.762C343.746 191.503 338.9 192.096 334.487 193.565C330.276 195.008 326.229 196.89 322.412 199.181" fill="#E0E0E0"/>
<path d="M296.529 210.349C293.432 204.107 293.632 196.822 296.304 190.395C298.181 193.259 298.414 196.902 298.069 200.312C297.724 203.722 296.689 207.236 296.625 210.662" fill="#E0E0E0"/>
<path d="M284.173 204.123C280.301 204.073 276.46 204.832 272.898 206.352C269.337 207.871 266.131 210.119 263.489 212.949C267.34 213.551 271.311 212.556 274.818 210.847C278.264 209.017 281.515 206.84 284.518 204.348" fill="#E0E0E0"/>
<path d="M275.869 201.339C272.09 201.034 268.455 200.537 264.828 201.684C262.994 202.196 261.292 203.098 259.84 204.329C258.387 205.561 257.218 207.091 256.412 208.817C259.975 209.105 263.55 208.429 266.762 206.859C269.959 205.299 273.007 203.452 275.869 201.339Z" fill="#E0E0E0"/>
<path d="M288.16 201.467C284.766 199.245 281.276 196.974 277.321 196.052C273.365 195.129 268.784 195.811 266.024 198.796C269.233 200.673 273.108 200.898 276.823 200.89C280.538 200.882 285.087 200.89 288.586 202.085" fill="#E0E0E0"/>
<path d="M288.184 201.652C282.375 195.948 280.161 185.702 282.512 177.903C287.098 184.923 289.103 193.318 288.184 201.652Z" fill="#E0E0E0"/>
<path d="M304.159 185.485C305.25 182.941 306.021 180.27 307.007 177.678C307.899 175.039 309.276 172.59 311.067 170.457C312.89 168.314 315.485 166.976 318.288 166.734C317.396 170.664 315.693 174.364 313.289 177.598C310.886 180.833 307.833 183.53 304.328 185.517" fill="#E0E0E0"/>
<path d="M301.263 188.854C299.449 186.359 297.355 182.973 294.9 181.112C292.445 179.25 289.244 178.119 286.243 178.833C287.796 181.556 289.962 183.879 292.569 185.618C295.176 187.358 298.153 188.466 301.263 188.854Z" fill="#E0E0E0"/>
<path d="M301.84 185.693C300.539 182.719 299.578 179.608 298.976 176.418C298.381 173.199 298.893 169.874 300.428 166.983C303.638 173.008 304.648 179.475 302.033 185.766" fill="#E0E0E0"/>
<path d="M304.183 166.983C305.988 161.006 311.46 156.609 317.365 154.587C318.098 154.291 318.889 154.172 319.676 154.242C320.069 154.285 320.44 154.442 320.744 154.695C321.048 154.947 321.271 155.284 321.385 155.662C321.602 156.681 320.759 157.596 319.973 158.27C315.352 162.21 309.981 165.174 304.183 166.983Z" fill="#E0E0E0"/>
<path d="M304.247 162.097C304.48 158.246 304.721 154.338 305.972 150.688C307.224 147.037 309.639 143.611 313.153 142.014C313.755 145.906 312.038 149.773 309.944 153.127C307.85 156.48 305.379 159.634 304.135 163.364" fill="#E0E0E0"/>
<path d="M304.159 164.744C302.667 160.396 302.506 154.859 299.899 151.105C298.077 148.449 295.157 146.644 293.592 143.835C292.642 146.528 292.772 149.484 293.953 152.083C295.137 154.653 296.767 156.992 298.767 158.992C300.693 161.046 302.346 162.602 304.143 164.776" fill="#E0E0E0"/>
<path d="M304.183 292.974C304.071 292.974 303.966 263.929 303.958 228.105C303.95 192.281 304.039 163.228 304.159 163.228C304.279 163.228 304.376 192.273 304.384 228.105C304.392 263.938 304.303 292.974 304.183 292.974Z" fill="#E0E0E0"/>
<path d="M329.569 205.985C329.217 206.15 328.852 206.287 328.478 206.394L325.469 207.405C322.934 208.271 319.452 209.523 315.681 211.072C311.91 212.62 308.412 213.976 306.398 215.717C305.596 216.384 304.959 217.227 304.536 218.18C304.247 218.862 304.191 219.279 304.159 219.279C304.127 219.279 304.159 219.167 304.159 218.975C304.205 218.685 304.277 218.4 304.376 218.124C304.755 217.109 305.381 216.205 306.197 215.492C307.405 214.469 308.757 213.629 310.209 212.997C311.813 212.243 313.611 211.457 315.504 210.678C319.291 209.13 322.798 207.918 325.365 207.124C326.641 206.723 327.692 206.434 328.414 206.233C328.79 206.112 329.177 206.029 329.569 205.985Z" fill="#E0E0E0"/>
<path d="M337.889 185.533C337.8 185.651 337.697 185.758 337.584 185.854L336.654 186.729L333.172 189.89L321.586 200.208C317.069 204.22 313.161 208.071 310.457 210.967C309.101 212.411 308.05 213.615 307.304 214.449C306.959 214.834 306.686 215.155 306.462 215.412C306.237 215.669 306.157 215.741 306.149 215.725C306.141 215.709 306.221 215.589 306.397 215.356C306.574 215.123 306.831 214.778 307.2 214.345C307.89 213.471 308.925 212.243 310.257 210.767C313.756 206.95 317.454 203.321 321.337 199.895C325.87 195.883 330.002 192.273 332.995 189.673L336.565 186.608L337.552 185.806C337.737 185.605 337.881 185.517 337.889 185.533Z" fill="#E0E0E0"/>
<path d="M316.708 204.3C316.587 204.244 317.51 202.061 318.473 199.309C319.436 196.557 319.877 194.223 319.997 194.239C319.894 196.019 319.515 197.773 318.874 199.438C318.471 200.626 318.002 201.791 317.47 202.928C317.281 203.419 317.025 203.881 316.708 204.3Z" fill="#E0E0E0"/>
<path d="M304.215 221.879C303.955 221.636 303.722 221.367 303.517 221.077L301.728 218.822C300.228 216.88 298.158 214.209 295.839 211.28C293.52 208.351 291.378 205.728 289.829 203.826L287.992 201.532C287.753 201.264 287.541 200.973 287.358 200.665C287.633 200.894 287.886 201.15 288.112 201.427C288.578 201.925 289.235 202.671 290.038 203.594C291.643 205.447 293.825 208.047 296.152 210.983C298.478 213.92 300.508 216.6 301.953 218.605C302.675 219.592 303.244 220.403 303.629 220.972C303.849 221.258 304.045 221.561 304.215 221.879Z" fill="#E0E0E0"/>
<path d="M298.647 214.73C297.52 213.49 296.718 211.99 296.312 210.365C295.88 208.942 295.7 207.454 295.782 205.968H295.967C295.887 206.305 295.83 206.482 295.79 206.474C295.75 206.466 295.79 206.281 295.79 205.936H295.975C296.065 207.384 296.312 208.818 296.713 210.213C297.242 211.765 297.889 213.275 298.647 214.73Z" fill="#E0E0E0"/>
<path d="M291.458 205.696C290.967 205.311 290.427 204.993 289.853 204.749C288.39 204.311 286.85 204.188 285.336 204.388C283.802 204.507 282.28 204.754 280.787 205.126C280.171 205.317 279.544 205.467 278.909 205.576C279.466 205.237 280.072 204.988 280.706 204.837C282.201 204.377 283.744 204.086 285.304 203.971C286.876 203.759 288.475 203.932 289.965 204.476C290.591 204.694 291.12 205.126 291.458 205.696Z" fill="#E0E0E0"/>
<path d="M289.757 203.506C289.757 203.57 288.81 203.121 287.262 202.599C285.251 201.912 283.162 201.481 281.043 201.315C278.923 201.161 276.791 201.269 274.697 201.636C273.092 201.925 272.113 202.23 272.089 202.158C272.294 202.027 272.519 201.932 272.755 201.877C273.37 201.663 273.997 201.486 274.633 201.347C278.881 200.417 283.308 200.755 287.366 202.318C287.975 202.549 288.57 202.817 289.147 203.121C289.369 203.216 289.575 203.346 289.757 203.506Z" fill="#E0E0E0"/>
<path d="M304.159 194.238C303.416 192.175 302.808 190.066 302.337 187.924C301.732 185.816 301.26 183.672 300.925 181.505C301.663 183.573 302.271 185.684 302.747 187.828C303.352 189.933 303.823 192.074 304.159 194.238Z" fill="#E0E0E0"/>
<path d="M304.271 194.238C303.687 192.934 303.014 191.672 302.258 190.459C301.403 189.315 300.405 188.285 299.289 187.394C299.712 187.501 300.105 187.704 300.436 187.988C301.277 188.607 302.009 189.36 302.603 190.219C303.503 191.388 304.079 192.775 304.271 194.238Z" fill="#E0E0E0"/>
<path d="M304.183 277.489C304.143 277.489 304.054 276.791 303.726 275.556C303.246 273.822 302.595 272.139 301.784 270.533C299.778 266.433 296.127 261.226 291.49 256.019C289.187 253.395 286.957 250.916 285.071 248.541C283.372 246.457 281.837 244.244 280.482 241.922C279.567 240.353 278.791 238.707 278.163 237.003C277.946 236.393 277.794 235.928 277.706 235.599C277.643 235.437 277.603 235.267 277.585 235.094C277.625 235.094 277.834 235.76 278.315 236.947C278.992 238.612 279.797 240.221 280.722 241.761C282.104 244.05 283.654 246.234 285.36 248.292C287.262 250.643 289.492 253.106 291.779 255.738C296.432 260.961 300.075 266.224 302.033 270.397C302.824 272.033 303.437 273.749 303.862 275.516C303.974 275.995 304.06 276.479 304.119 276.968C304.16 277.139 304.182 277.314 304.183 277.489Z" fill="#E0E0E0"/>
<path d="M327.122 251.582C326.738 251.835 326.336 252.061 325.918 252.256C324.833 252.867 323.792 253.556 322.805 254.318C321.344 255.456 319.974 256.706 318.705 258.057C317.269 259.573 315.793 261.338 314.276 263.224C311.26 267.019 308.435 270.372 306.742 273.044C305.884 274.376 305.258 275.499 304.849 276.254C304.655 276.672 304.433 277.077 304.183 277.465C304.206 277.348 304.244 277.235 304.295 277.128C304.384 276.912 304.504 276.583 304.697 276.181C305.228 275.043 305.826 273.937 306.486 272.868C308.131 270.124 310.939 266.722 313.947 262.935C315.464 261.049 316.964 259.276 318.425 257.76C319.719 256.414 321.123 255.177 322.621 254.061C323.631 253.311 324.705 252.65 325.83 252.087C326.223 251.887 326.552 251.766 326.769 251.678C326.881 251.628 327 251.595 327.122 251.582Z" fill="#E0E0E0"/>
<path d="M327.571 259.99C326.733 260.171 325.883 260.294 325.028 260.359C322.987 260.57 320.97 260.967 319.002 261.547C317.057 262.178 315.234 263.136 313.61 264.379C312.367 265.334 311.781 266.128 311.717 266.088C311.809 265.873 311.937 265.675 312.094 265.502C312.489 265.007 312.933 264.553 313.418 264.146C315.028 262.807 316.88 261.788 318.874 261.146C320.869 260.553 322.926 260.189 325.004 260.062C325.856 259.96 326.715 259.935 327.571 259.99Z" fill="#E0E0E0"/>
<path d="M312.463 265.165C312.327 265.085 313.474 263.336 314.365 260.985C315.255 258.634 315.392 256.532 315.544 256.556C315.601 257.01 315.585 257.471 315.496 257.92C315.373 259.015 315.126 260.091 314.758 261.129C314.374 262.162 313.879 263.149 313.282 264.074C313.07 264.48 312.793 264.848 312.463 265.165Z" fill="#E0E0E0"/>
<path d="M334.527 229.02C334.401 229.11 334.264 229.183 334.118 229.236L332.923 229.774C332.401 229.999 331.767 230.288 331.053 230.665C330.339 231.042 329.497 231.419 328.646 231.94L327.266 232.743C326.785 233.024 326.303 233.344 325.798 233.665C324.779 234.283 323.752 235.045 322.661 235.832C317.985 239.319 313.904 243.541 310.578 248.332C309.831 249.455 309.109 250.498 308.524 251.542C308.227 252.063 307.914 252.544 307.649 253.034L306.911 254.454C306.421 255.337 306.068 256.187 305.715 256.917C305.362 257.647 305.106 258.289 304.913 258.819C304.72 259.348 304.544 259.717 304.416 260.03C304.367 260.179 304.297 260.32 304.207 260.447C304.235 260.296 304.278 260.149 304.335 260.006C304.448 259.677 304.584 259.268 304.761 258.763C304.937 258.257 305.186 257.567 305.523 256.829C305.86 256.091 306.181 255.224 306.662 254.318L307.384 252.881C307.633 252.384 307.946 251.895 308.235 251.365C308.812 250.314 309.534 249.247 310.273 248.116C313.585 243.253 317.704 238.993 322.452 235.519C323.559 234.716 324.594 233.986 325.662 233.369C326.175 233.056 326.656 232.735 327.146 232.462L328.558 231.66C329.441 231.154 330.291 230.785 331.021 230.432C331.751 230.079 332.401 229.814 332.931 229.63L334.158 229.156C334.276 229.097 334.399 229.051 334.527 229.02Z" fill="#E0E0E0"/>
<path d="M316.395 241.183C316.567 240.597 316.918 240.078 317.398 239.699C318.512 238.728 319.932 238.18 321.409 238.15C322.86 238.142 324.299 238.414 325.646 238.953C326.218 239.138 326.759 239.408 327.25 239.755C326.67 239.64 326.1 239.474 325.549 239.258C324.224 238.806 322.834 238.575 321.433 238.576C320.041 238.603 318.694 239.075 317.59 239.924C317.162 240.314 316.762 240.735 316.395 241.183Z" fill="#E0E0E0"/>
<path d="M313.667 243.983C314.206 242.799 314.592 241.551 314.814 240.269C314.893 238.968 314.806 237.664 314.557 236.385C314.794 236.705 314.954 237.076 315.022 237.468C315.515 239.34 315.282 241.329 314.373 243.037C314.036 243.695 313.723 244.007 313.667 243.983Z" fill="#E0E0E0"/>
<path d="M284.125 281.653C284.751 292.758 288.096 304.047 293.239 315.456H315.617C320.519 304.159 323.64 292.886 324.186 281.653H284.125Z" fill="#E0E0E0"/>
<path d="M320.559 299.618C320.559 299.73 313.193 299.826 304.111 299.826C295.029 299.826 287.655 299.73 287.655 299.618C287.655 299.505 295.02 299.409 304.111 299.409C313.202 299.409 320.559 299.497 320.559 299.618Z" fill="#FAFAFA"/>
<path d="M320.085 303.637C320.085 303.75 313.177 303.846 304.664 303.846C296.151 303.846 289.235 303.75 289.235 303.637C289.235 303.525 296.143 303.429 304.664 303.429C313.185 303.429 320.085 303.525 320.085 303.637Z" fill="#FAFAFA"/>
<path d="M293.608 288.939C293.886 292.37 293.886 295.818 293.608 299.249C293.33 295.818 293.33 292.37 293.608 288.939Z" fill="#FAFAFA"/>
<path d="M305.587 288.939C305.865 292.493 305.865 296.064 305.587 299.618C305.309 296.064 305.309 292.493 305.587 288.939Z" fill="#FAFAFA"/>
<path d="M316.876 288.85C317.154 292.474 317.154 296.114 316.876 299.738C316.598 296.114 316.598 292.474 316.876 288.85Z" fill="#FAFAFA"/>
<path d="M323.479 288.939C323.479 289.059 314.838 289.155 304.183 289.155C293.528 289.155 284.887 289.059 284.887 288.939C284.887 288.818 293.52 288.73 304.183 288.73C314.846 288.73 323.479 288.826 323.479 288.939Z" fill="#FAFAFA"/>
</svg>
