<svg width="156" height="329" viewBox="0 0 156 329" fill="none" xmlns="http://www.w3.org/2000/svg">
<path d="M137.114 0.218682H114.059C113.303 0.233278 112.558 0.396952 111.866 0.700303C111.175 1.00365 110.549 1.4407 110.027 1.98635C109.504 2.53201 109.095 3.17551 108.822 3.8799C108.549 4.58429 108.417 5.3357 108.435 6.09096V10.2923C108.454 11.0476 108.322 11.799 108.049 12.5034C107.776 13.2078 107.367 13.8513 106.844 14.3969C106.322 14.9426 105.696 15.3796 105.005 15.683C104.313 15.9863 103.568 16.15 102.812 16.1646H57.8262C57.0712 16.149 56.3267 15.9846 55.6353 15.6809C54.9438 15.3771 54.3191 14.9401 53.7968 14.3946C53.2745 13.8492 52.8649 13.2061 52.5914 12.5022C52.3179 11.7983 52.1859 11.0473 52.203 10.2923V6.05883C52.2211 5.30317 52.0899 4.55137 51.8169 3.84651C51.5439 3.14166 51.1345 2.49763 50.6121 1.95134C50.0896 1.40505 49.4645 0.967243 48.7726 0.663024C48.0806 0.358805 47.3354 0.194156 46.5797 0.178516H38.5947H18.4153C16.027 0.180622 13.6625 0.653518 11.4571 1.57016C9.25173 2.4868 7.24868 3.8292 5.56251 5.52059C3.87634 7.21199 2.54014 9.21919 1.63032 11.4274C0.720506 13.6356 0.254923 16.0015 0.260203 18.3898L0.203977 310.494C0.195443 315.314 2.10121 319.941 5.50247 323.358C8.90374 326.774 13.5222 328.7 18.343 328.713L137.042 328.785C139.43 328.783 141.795 328.31 144 327.394C146.205 326.477 148.208 325.135 149.895 323.443C151.581 321.752 152.917 319.745 153.827 317.536C154.737 315.328 155.202 312.962 155.197 310.574L155.253 18.4621C155.262 16.0728 154.799 13.7052 153.892 11.4948C152.984 9.28438 151.65 7.27452 149.965 5.58014C148.281 3.88576 146.279 2.54011 144.073 1.62015C141.868 0.700179 139.503 0.223946 137.114 0.218682Z" fill="white"/>
<path d="M137.114 0.218476C137.114 0.218476 137.331 0.218476 137.741 0.218476C138.356 0.224997 138.971 0.273307 139.58 0.363074C141.999 0.671918 144.324 1.49355 146.4 2.77304C147.942 3.68172 149.337 4.81935 150.537 6.14699C151.999 7.74306 153.163 9.58759 153.976 11.5935C154.916 13.9389 155.375 16.4496 155.325 18.976C155.325 21.6591 155.325 24.519 155.325 27.5475C155.325 51.7837 155.325 86.8567 155.373 130.188C155.422 173.519 155.373 225.124 155.373 282.417V309.682C155.373 310.598 155.317 311.538 155.277 312.47C155.167 313.399 154.993 314.32 154.755 315.225C153.795 318.897 151.728 322.184 148.834 324.64C147.378 325.852 145.755 326.847 144.014 327.596C142.242 328.314 140.37 328.753 138.463 328.898L137.026 328.97H103.848H56.2997H31.9832H19.7165C15.5245 329.206 11.3721 328.048 7.90766 325.676C4.46464 323.262 1.94377 319.75 0.758086 315.715C0.194453 313.717 -0.0575356 311.644 0.0110025 309.57V303.44C0.0110025 295.273 0.0110025 287.162 0.0110025 279.108C0.0110025 263.009 0.0110025 247.157 0.0110025 231.551C0.0110025 200.366 0.0110025 170.29 0.0110025 141.643C0.0110025 112.997 0.0110025 85.7642 0.0110025 60.2828C0.0110025 47.5421 0.0110025 35.2513 0.0110025 23.4104V18.9359C0.0110025 18.2048 0.0672399 17.4658 0.0913396 16.7348C0.115439 16.0037 0.292165 15.2808 0.412663 14.5658C1.03163 11.7295 2.29614 9.07402 4.10795 6.80571C5.88902 4.61362 8.15093 2.86108 10.7184 1.68393C13.2858 0.50677 16.0899 -0.0633868 18.9132 0.0176455H34.7707H46.1377C47.3922 -0.0802127 48.6446 0.230823 49.7075 0.904197C50.7704 1.57757 51.5867 2.57707 52.0341 3.75309C52.251 4.32575 52.3863 4.9261 52.4358 5.53646C52.484 6.15502 52.4358 6.73341 52.4358 7.32787C52.4358 8.50875 52.4358 9.73784 52.4358 10.8464C52.546 11.9806 52.9842 13.0581 53.697 13.9472C54.4002 14.8248 55.3567 15.4643 56.4363 15.7788C57.5256 15.9937 58.6384 16.0639 59.746 15.9877H66.3172H90.3044H100.876C101.679 15.9877 102.555 15.9877 103.358 15.9877C104.157 15.8964 104.924 15.6214 105.6 15.1844C106.253 14.7783 106.818 14.2458 107.262 13.6181C107.706 12.9904 108.021 12.2802 108.186 11.5292C108.328 10.8019 108.382 10.0603 108.347 9.32011V7.23951C108.32 6.53136 108.349 5.82218 108.435 5.11874C108.538 4.43419 108.761 3.77325 109.094 3.16666C109.719 1.99544 110.729 1.07601 111.954 0.563904C113.112 0.179778 114.338 0.0429433 115.553 0.162244L127.362 0.218476H134.591H137.058C137.058 0.218476 136.254 0.218476 134.591 0.218476H127.362H115.561C114.362 0.107355 113.152 0.246873 112.01 0.628169C110.815 1.13039 109.831 2.02997 109.223 3.1747C108.904 3.76852 108.689 4.41242 108.588 5.07857C108.508 5.77443 108.481 6.47533 108.508 7.17524V9.35224C108.544 10.1027 108.493 10.8549 108.355 11.5935C108.185 12.366 107.863 13.0969 107.408 13.7438C106.953 14.3906 106.374 14.9404 105.704 15.3611C105.002 15.8024 104.207 16.0772 103.382 16.1644C102.579 16.2206 101.728 16.1644 100.884 16.1644H58.1072C57.5321 16.173 56.9587 16.1 56.4042 15.9475C55.2755 15.6179 54.2747 14.9507 53.5363 14.0356C52.7984 13.1121 52.3386 11.9975 52.2108 10.8223C52.1466 9.63341 52.2108 8.47662 52.2108 7.27967C52.2108 6.69325 52.2108 6.09076 52.2108 5.51237C52.1648 4.9257 52.0322 4.34909 51.8172 3.80129C51.3915 2.67935 50.6131 1.72588 49.5991 1.08416C48.585 0.442431 47.3902 0.147112 46.194 0.242575H18.9132C16.1523 0.182037 13.4142 0.753502 10.9081 1.91329C8.40192 3.07308 6.1941 4.79048 4.45337 6.93425C2.67534 9.16695 1.43315 11.7777 0.822353 14.5658C0.709888 15.2727 0.581365 15.9796 0.517099 16.6946C0.452833 17.4096 0.412662 18.1325 0.436762 18.8716V60.1543C0.436762 85.6357 0.436762 112.86 0.436762 141.515V231.487C0.436762 247.082 0.436762 262.934 0.436762 279.043C0.436762 287.077 0.436762 295.187 0.436762 303.376V309.497C0.368367 311.531 0.614958 313.564 1.16779 315.522C2.32466 319.467 4.78938 322.9 8.15668 325.258C11.5498 327.582 15.619 328.713 19.7245 328.472H32.0073H56.3239H103.872H127.04H137.001L138.407 328.399C140.273 328.259 142.105 327.828 143.838 327.122C145.554 326.4 147.154 325.429 148.585 324.238C151.412 321.868 153.44 318.684 154.393 315.121C154.629 314.237 154.801 313.338 154.907 312.429C154.907 311.514 155.02 310.606 155.004 309.682V304.163C155.004 296.832 155.004 289.583 155.004 282.417C155.004 225.124 155.052 173.527 155.076 130.188C155.1 86.8487 155.14 51.7837 155.165 27.5475C155.165 24.519 155.165 21.6591 155.165 18.976C155.228 16.4668 154.788 13.9703 153.871 11.6337C153.064 9.64221 151.911 7.8092 150.465 6.21929C149.278 4.89083 147.893 3.75288 146.36 2.84534C144.298 1.57357 141.99 0.752285 139.588 0.435373C138.979 0.34029 138.365 0.283945 137.749 0.266676L137.114 0.218476Z" fill="#263238"/>
<path d="M128.912 211.958H19.5317C16.9718 211.958 14.8966 214.033 14.8966 216.593V233.19C14.8966 235.75 16.9718 237.825 19.5317 237.825H128.912C131.472 237.825 133.547 235.75 133.547 233.19V216.593C133.547 214.033 131.472 211.958 128.912 211.958Z" fill="#235DFF"/>
<path d="M48.2185 79.659L49.1584 77.5623C50.3228 78.3681 51.7028 78.8048 53.1188 78.8155C54.7254 78.8155 55.4323 78.2692 55.4323 77.5302C55.4323 75.2889 48.4595 76.8313 48.4595 72.3729C48.4595 70.3324 50.1063 68.6374 53.5124 68.6374C54.9723 68.6089 56.4127 68.9753 57.6816 69.6978L56.8221 71.8105C55.8138 71.2131 54.6681 70.8865 53.4963 70.8626C51.8495 70.8626 51.2149 71.4812 51.2149 72.2363C51.2149 74.4454 58.1877 72.9191 58.1877 77.3294C58.1877 79.3296 56.5329 81.0487 53.1027 81.0487C51.3716 81.09 49.6686 80.6054 48.2185 79.659Z" fill="black"/>
<path d="M59.577 68.8461C59.5806 68.6364 59.6274 68.4296 59.7144 68.2387C59.8015 68.0479 59.9269 67.877 60.083 67.7368C60.239 67.5966 60.4223 67.49 60.6213 67.4238C60.8204 67.3576 61.031 67.3331 61.2399 67.3519C61.4449 67.3297 61.6523 67.35 61.8492 67.4115C62.0461 67.4729 62.2282 67.5742 62.3842 67.7091C62.5402 67.844 62.6667 68.0096 62.7559 68.1955C62.8452 68.3815 62.8951 68.5838 62.9028 68.7899C62.8697 69.2038 62.6837 69.5906 62.381 69.8748C62.0783 70.1591 61.6806 70.3205 61.2654 70.3275C60.8502 70.3345 60.4473 70.1867 60.1352 69.9128C59.8231 69.639 59.6241 69.2587 59.577 68.8461ZM59.9064 71.6176H62.5734V80.8397H59.8823L59.9064 71.6176Z" fill="black"/>
<path d="M74.5751 71.6177V79.2974C74.5751 82.7276 72.7194 84.3021 69.3936 84.3021C67.7897 84.3684 66.2062 83.924 64.871 83.0329L65.9313 81.1129C66.881 81.7966 68.0227 82.1621 69.1928 82.1573C71.0726 82.1573 71.9 81.3057 71.9 79.6428V79.2492C71.5226 79.6352 71.0674 79.9365 70.5647 80.1332C70.0619 80.3299 69.5231 80.4174 68.984 80.3899C68.3831 80.4155 67.7832 80.3192 67.2206 80.1068C66.6579 79.8945 66.144 79.5705 65.7098 79.1543C65.2756 78.7382 64.9301 78.2385 64.694 77.6853C64.458 77.1322 64.3363 76.5369 64.3363 75.9355C64.3363 75.3341 64.458 74.7389 64.694 74.1857C64.9301 73.6326 65.2756 73.1329 65.7098 72.7167C66.144 72.3006 66.6579 71.9766 67.2206 71.7642C67.7832 71.5519 68.3831 71.4556 68.984 71.4811C69.56 71.4495 70.1356 71.552 70.6653 71.7806C71.195 72.0092 71.6644 72.3577 72.0366 72.7986V71.6177H74.5751ZM71.9321 75.9395C71.9627 75.4576 71.8478 74.9775 71.6023 74.5616C71.3567 74.1458 70.9919 73.8133 70.5551 73.6072C70.1183 73.4012 69.6297 73.3312 69.1526 73.4062C68.6755 73.4812 68.232 73.6979 67.8795 74.028C67.5271 74.3582 67.2819 74.7866 67.1759 75.2578C67.0698 75.7289 67.1078 76.2211 67.2848 76.6704C67.4619 77.1197 67.7698 77.5055 68.1688 77.7777C68.5677 78.0499 69.0392 78.1959 69.5222 78.1969C69.8317 78.2203 70.1428 78.1791 70.4356 78.0759C70.7284 77.9728 70.9966 77.81 71.2232 77.5977C71.4497 77.3855 71.6298 77.1285 71.7518 76.8431C71.8738 76.5577 71.9353 76.25 71.9321 75.9395Z" fill="black"/>
<path d="M86.4804 75.5622V80.84H83.8053V75.9719C83.8053 74.4858 83.1225 73.7949 81.9416 73.7949C80.7608 73.7949 79.7245 74.5982 79.7245 76.2772V80.84H77.0574V71.6179H79.604V72.7024C79.9979 72.2951 80.4735 71.9757 80.9996 71.7652C81.5257 71.5548 82.0904 71.458 82.6566 71.4813C84.8336 71.4813 86.4804 72.7506 86.4804 75.5622Z" fill="black"/>
<path d="M93.4213 68.8461C93.4248 68.6364 93.4716 68.4296 93.5587 68.2388C93.6457 68.0479 93.7712 67.877 93.9272 67.7368C94.0833 67.5966 94.2665 67.4901 94.4656 67.4238C94.6646 67.3576 94.8752 67.3332 95.0842 67.352C95.2888 67.3297 95.4958 67.35 95.6922 67.4115C95.8886 67.4731 96.0702 67.5745 96.2256 67.7095C96.381 67.8445 96.5068 68.0102 96.5951 68.1961C96.6835 68.382 96.7325 68.5842 96.739 68.7899C96.7177 69.211 96.5373 69.6083 96.2342 69.9014C95.9311 70.1945 95.528 70.3615 95.1064 70.3686C94.6848 70.3758 94.2763 70.2225 93.9635 69.9399C93.6506 69.6572 93.4568 69.2663 93.4213 68.8461ZM93.7426 71.6176H96.4177V80.8397H93.7426V71.6176Z" fill="black"/>
<path d="M108.323 75.5622V80.84H105.672V75.9719C105.672 74.4858 104.981 73.7949 103.8 73.7949C102.619 73.7949 101.591 74.5982 101.591 76.2772V80.84H98.9157V71.6179H101.47V72.7024C101.864 72.2951 102.34 71.9757 102.866 71.7652C103.392 71.5548 103.957 71.458 104.523 71.4813C106.684 71.4813 108.323 72.7506 108.323 75.5622Z" fill="black"/>
<path d="M20.8491 120.371V120.805H17.4912V116.058H20.7527V116.491H17.9892V118.178H20.4474V118.612H17.9892V120.371H20.8491Z" fill="#263238"/>
<path d="M21.532 118.756H23.3074V119.182H21.532V118.756Z" fill="#263238"/>
<path d="M30.28 118.741V120.805H29.798V118.789C29.798 118.034 29.4205 117.64 28.7778 117.64C28.6104 117.633 28.4434 117.663 28.2884 117.727C28.1335 117.79 27.9943 117.887 27.8804 118.01C27.7666 118.133 27.6809 118.28 27.6291 118.439C27.5774 118.598 27.5609 118.767 27.5809 118.934V120.805H27.0989V118.789C27.0989 118.034 26.7213 117.64 26.0706 117.64C25.9032 117.633 25.7362 117.663 25.5813 117.727C25.4263 117.79 25.2871 117.887 25.1733 118.01C25.0594 118.133 24.9737 118.28 24.9219 118.439C24.8702 118.598 24.8537 118.767 24.8737 118.934V120.805H24.3917V117.239H24.8496V117.889C24.9876 117.669 25.1816 117.49 25.4117 117.37C25.6419 117.25 25.8998 117.194 26.159 117.206C26.4225 117.187 26.6858 117.248 26.9129 117.383C27.14 117.519 27.32 117.72 27.4282 117.962C27.5772 117.723 27.7862 117.528 28.0343 117.395C28.2824 117.263 28.5609 117.198 28.8421 117.206C29.0433 117.191 29.2453 117.221 29.4333 117.295C29.6213 117.368 29.7905 117.482 29.9284 117.629C30.0664 117.776 30.1696 117.953 30.2304 118.145C30.2913 118.337 30.3082 118.541 30.28 118.741Z" fill="#263238"/>
<path d="M34.2889 118.596V120.805H33.831V120.251C33.6981 120.451 33.5139 120.611 33.2977 120.716C33.0815 120.821 32.8412 120.865 32.6019 120.845C31.7986 120.845 31.3005 120.419 31.3005 119.801C31.3005 119.182 31.646 118.789 32.6742 118.789H33.8069V118.572C33.8069 117.961 33.4615 117.632 32.7947 117.632C32.3616 117.627 31.9406 117.775 31.6058 118.05L31.3889 117.688C31.8035 117.365 32.3172 117.194 32.8429 117.206C33.0344 117.178 33.2298 117.194 33.4141 117.253C33.5984 117.312 33.7667 117.413 33.9062 117.547C34.0458 117.681 34.1528 117.845 34.2191 118.027C34.2854 118.209 34.3093 118.403 34.2889 118.596ZM33.8069 119.737V119.15H32.6903C31.9994 119.15 31.7745 119.423 31.7745 119.793C31.7745 120.162 32.1038 120.46 32.6742 120.46C32.9154 120.476 33.1555 120.414 33.3593 120.284C33.5631 120.154 33.72 119.962 33.8069 119.737Z" fill="#263238"/>
<path d="M35.4935 116.105C35.4935 116.035 35.5143 115.967 35.5531 115.909C35.592 115.851 35.6472 115.806 35.7117 115.779C35.7763 115.752 35.8474 115.745 35.916 115.759C35.9845 115.772 36.0475 115.806 36.0969 115.855C36.1464 115.905 36.18 115.968 36.1937 116.036C36.2073 116.105 36.2003 116.176 36.1736 116.241C36.1468 116.305 36.1015 116.36 36.0434 116.399C35.9853 116.438 35.9169 116.459 35.847 116.459C35.8003 116.46 35.7538 116.452 35.7105 116.434C35.6671 116.417 35.6277 116.391 35.5946 116.358C35.5616 116.325 35.5356 116.285 35.5182 116.242C35.5008 116.199 35.4924 116.152 35.4935 116.105ZM35.598 117.238H36.088V120.805H35.598V117.238Z" fill="#263238"/>
<path d="M37.4297 115.768H37.9117V120.805H37.4297V115.768Z" fill="#263238"/>
<path d="M19.3949 164.482C19.3949 165.494 18.6639 166.088 17.4509 166.088H16.1736V167.59H15.6997V162.835H17.475C18.6639 162.851 19.3949 163.469 19.3949 164.482ZM18.8969 164.482C18.8969 163.726 18.3908 163.293 17.4429 163.293H16.1736V165.703H17.4429C18.3908 165.703 18.9129 165.229 18.9129 164.482H18.8969Z" fill="black"/>
<path d="M23.0421 165.398V167.607H22.5842V167.052C22.4509 167.252 22.2664 167.411 22.0501 167.514C21.8338 167.618 21.5937 167.661 21.3551 167.639C20.5518 167.639 20.0457 167.221 20.0457 166.603C20.0457 165.984 20.3991 165.59 21.4274 165.59H22.5601V165.373C22.5601 164.763 22.2146 164.434 21.5479 164.434C21.1148 164.428 20.6937 164.576 20.359 164.851L20.1421 164.49C20.5567 164.166 21.0703 163.996 21.5961 164.008C21.7876 163.98 21.9829 163.996 22.1672 164.055C22.3515 164.114 22.5199 164.214 22.6594 164.349C22.7989 164.483 22.906 164.647 22.9723 164.829C23.0386 165.011 23.0625 165.205 23.0421 165.398ZM22.5601 166.538V165.952H21.4434C20.7446 165.952 20.5196 166.225 20.5196 166.586C20.5196 166.948 20.857 167.261 21.4274 167.261C21.6723 167.274 21.9147 167.207 22.1187 167.071C22.3227 166.935 22.4775 166.737 22.5601 166.506V166.538Z" fill="black"/>
<path d="M23.8615 167.197L24.0784 166.82C24.4477 167.086 24.8925 167.226 25.3477 167.221C26.0224 167.221 26.3036 166.988 26.3036 166.635C26.3036 165.703 23.9901 166.442 23.9901 165.028C23.9901 164.442 24.4881 164.008 25.3959 164.008C25.842 164.001 26.2814 164.118 26.6651 164.345L26.4482 164.731C26.1372 164.523 25.7697 164.417 25.3959 164.426C24.7532 164.426 24.472 164.675 24.472 165.012C24.472 165.976 26.7856 165.253 26.7856 166.619C26.7856 167.237 26.2394 167.631 25.3075 167.631C24.7907 167.651 24.282 167.498 23.8615 167.197Z" fill="black"/>
<path d="M27.1795 167.197L27.3964 166.819C27.7656 167.086 28.2105 167.226 28.6656 167.221C29.3485 167.221 29.6216 166.988 29.6216 166.635C29.6216 165.703 27.308 166.442 27.308 165.028C27.308 164.442 27.8141 164.008 28.7219 164.008C29.1653 164.002 29.6017 164.119 29.9831 164.345L29.7742 164.731C29.4624 164.525 29.0954 164.419 28.7219 164.426C28.0712 164.426 27.79 164.675 27.79 165.012C27.79 165.976 30.1036 165.253 30.1036 166.619C30.1036 167.237 29.5654 167.631 28.6335 167.631C28.1141 167.652 27.6024 167.499 27.1795 167.197Z" fill="black"/>
<path d="M36.1683 164.04L34.8187 167.607H34.3608L33.2362 164.683L32.1115 167.607H31.6536L30.3121 164.04H30.77L31.8946 167.068L33.0434 164.04H33.4531L34.5938 167.068L35.7265 164.04H36.1683Z" fill="black"/>
<path d="M36.4334 165.823C36.4318 165.462 36.5374 165.109 36.7368 164.808C36.9363 164.507 37.2205 164.272 37.5536 164.133C37.8866 163.993 38.2535 163.956 38.6078 164.026C38.962 164.095 39.2877 164.268 39.5435 164.523C39.7994 164.777 39.9738 165.102 40.0449 165.456C40.1159 165.81 40.0802 166.177 39.9425 166.511C39.8047 166.845 39.571 167.13 39.2709 167.331C38.9709 167.531 38.618 167.639 38.257 167.639C38.0158 167.648 37.7753 167.607 37.5506 167.519C37.3258 167.431 37.1216 167.298 36.9505 167.127C36.7795 166.957 36.6453 166.753 36.5564 166.529C36.4674 166.305 36.4256 166.064 36.4334 165.823ZM39.5825 165.823C39.5714 165.562 39.4837 165.309 39.3303 165.097C39.1769 164.885 38.9645 164.723 38.7196 164.631C38.4747 164.539 38.2081 164.521 37.9531 164.579C37.698 164.638 37.4657 164.77 37.2851 164.959C37.1046 165.148 36.9837 165.387 36.9375 165.644C36.8914 165.902 36.922 166.167 37.0256 166.407C37.1292 166.648 37.3012 166.852 37.5201 166.995C37.7391 167.138 37.9953 167.214 38.257 167.213C38.4376 167.217 38.617 167.183 38.7838 167.113C38.9506 167.044 39.1011 166.941 39.2258 166.81C39.3505 166.679 39.4466 166.524 39.508 166.354C39.5694 166.184 39.5948 166.003 39.5825 165.823Z" fill="black"/>
<path d="M42.8523 164.008V164.474H42.7399C42.5695 164.465 42.3992 164.494 42.2413 164.559C42.0834 164.623 41.9418 164.722 41.8266 164.848C41.7115 164.974 41.6256 165.124 41.5752 165.287C41.5247 165.45 41.511 165.622 41.5349 165.791V167.607H41.0529V164.04H41.5188V164.739C41.6392 164.495 41.8317 164.294 42.0703 164.163C42.3089 164.032 42.5819 163.978 42.8523 164.008Z" fill="black"/>
<path d="M46.949 162.57V167.607H46.4831V166.9C46.3405 167.134 46.138 167.326 45.8965 167.456C45.6551 167.585 45.3834 167.649 45.1094 167.639C44.6279 167.639 44.1661 167.447 43.8256 167.107C43.4851 166.766 43.2939 166.305 43.2939 165.823C43.2939 165.342 43.4851 164.88 43.8256 164.539C44.1661 164.199 44.6279 164.008 45.1094 164.008C45.3766 164.003 45.6407 164.066 45.8778 164.189C46.1148 164.312 46.3174 164.493 46.467 164.715V162.57H46.949ZM46.475 165.823C46.464 165.562 46.3763 165.309 46.2229 165.097C46.0694 164.885 45.8571 164.723 45.6122 164.631C45.3673 164.539 45.1007 164.521 44.8456 164.579C44.5906 164.638 44.3583 164.77 44.1777 164.959C43.9971 165.148 43.8762 165.387 43.8301 165.644C43.7839 165.902 43.8146 166.167 43.9182 166.407C44.0218 166.648 44.1937 166.852 44.4127 166.995C44.6317 167.139 44.8879 167.214 45.1496 167.213C45.3302 167.217 45.5096 167.183 45.6764 167.113C45.8432 167.044 45.9937 166.941 46.1184 166.81C46.2431 166.679 46.3392 166.524 46.4006 166.354C46.462 166.184 46.4873 166.003 46.475 165.823Z" fill="black"/>
<path d="M58.7255 226.924L59.1995 225.872C59.7828 226.275 60.4743 226.494 61.1837 226.498C61.987 226.498 62.3405 226.225 62.3405 225.855C62.3405 224.731 58.846 225.502 58.846 223.269C58.846 222.249 59.6493 221.397 61.3765 221.397C62.108 221.38 62.8302 221.564 63.4651 221.927L63.0394 222.988C62.5333 222.687 61.9572 222.523 61.3685 222.514C60.5651 222.514 60.2277 222.819 60.2277 223.196C60.2277 224.305 63.7222 223.542 63.7222 225.751C63.7222 226.755 62.9189 227.615 61.1757 227.615C60.3079 227.637 59.4537 227.396 58.7255 226.924Z" fill="white"/>
<path d="M64.4214 221.502C64.4357 221.298 64.5265 221.108 64.6757 220.97C64.8248 220.831 65.0211 220.754 65.2247 220.755C65.3248 220.747 65.4254 220.759 65.5205 220.792C65.6156 220.824 65.7033 220.875 65.7782 220.941C65.8532 221.008 65.914 221.089 65.9569 221.18C65.9998 221.271 66.024 221.369 66.028 221.469C66.028 221.69 65.9405 221.901 65.7845 222.057C65.6286 222.213 65.4171 222.301 65.1966 222.301C64.9761 222.301 64.7646 222.213 64.6087 222.057C64.4528 221.901 64.3652 221.69 64.3652 221.469L64.4214 221.502ZM64.5821 222.891H65.9236V227.51H64.5821V222.891Z" fill="white"/>
<path d="M71.9322 224.867V227.51H70.5987V225.1C70.5987 224.345 70.2533 224.008 69.6588 224.008C69.0644 224.008 68.5503 224.402 68.5503 225.253V227.535H67.2087V222.915H68.494V223.454C68.6913 223.25 68.9292 223.091 69.1921 222.986C69.4551 222.881 69.7373 222.832 70.0203 222.843C70.2857 222.826 70.5517 222.867 70.7992 222.964C71.0467 223.062 71.2698 223.212 71.4524 223.406C71.635 223.599 71.7727 223.83 71.8556 224.083C71.9386 224.336 71.9647 224.604 71.9322 224.867Z" fill="white"/>
<path d="M77.9251 222.891V226.755C77.9251 228.474 77.0012 229.261 75.3303 229.261C74.5267 229.298 73.7327 229.075 73.065 228.627L73.5952 227.663C74.0616 228.004 74.6238 228.19 75.2018 228.193C76.1497 228.193 76.5594 227.759 76.5594 226.924V226.755C76.3722 226.949 76.1456 227.102 75.8949 227.201C75.6441 227.301 75.375 227.346 75.1054 227.333C74.8003 227.352 74.4947 227.307 74.2074 227.203C73.9201 227.099 73.6571 226.937 73.4346 226.728C73.2121 226.518 73.0349 226.265 72.9137 225.985C72.7925 225.704 72.73 225.402 72.73 225.096C72.73 224.791 72.7925 224.488 72.9137 224.208C73.0349 223.927 73.2121 223.674 73.4346 223.465C73.6571 223.255 73.9201 223.093 74.2074 222.989C74.4947 222.885 74.8003 222.841 75.1054 222.859C75.3942 222.843 75.6828 222.895 75.9479 223.011C76.213 223.126 76.4473 223.303 76.6317 223.526V222.931L77.9251 222.891ZM76.6076 225.052C76.6237 224.807 76.5659 224.564 76.4415 224.352C76.3171 224.141 76.1321 223.972 75.9104 223.867C75.6887 223.763 75.4406 223.727 75.1985 223.766C74.9563 223.804 74.7313 223.914 74.5527 224.082C74.3741 224.25 74.2502 224.468 74.1971 224.707C74.144 224.947 74.1642 225.196 74.255 225.424C74.3459 225.652 74.5031 225.847 74.7064 225.984C74.9096 226.121 75.1494 226.194 75.3946 226.193C75.5509 226.205 75.7081 226.185 75.856 226.133C76.0039 226.081 76.1394 225.998 76.2536 225.891C76.3678 225.783 76.4583 225.653 76.5193 225.509C76.5802 225.364 76.6103 225.209 76.6076 225.052Z" fill="white"/>
<path d="M81.4435 221.502C81.4578 221.298 81.5487 221.108 81.6978 220.97C81.847 220.831 82.0432 220.754 82.2469 220.755C82.3469 220.747 82.4475 220.759 82.5426 220.792C82.6377 220.824 82.7254 220.875 82.8004 220.941C82.8754 221.008 82.9361 221.089 82.979 221.18C83.022 221.271 83.0462 221.369 83.0502 221.469C83.0502 221.69 82.9626 221.901 82.8067 222.057C82.6507 222.213 82.4393 222.301 82.2187 222.301C81.9982 222.301 81.7868 222.213 81.6308 222.057C81.4749 221.901 81.3873 221.69 81.3873 221.469L81.4435 221.502ZM81.6042 222.891H82.9458V227.51H81.5721L81.6042 222.891Z" fill="white"/>
<path d="M88.9148 224.867V227.51H87.5813V225.1C87.5813 224.345 87.2358 224.008 86.6414 224.008C86.0469 224.008 85.5328 224.402 85.5328 225.253V227.535H84.1912V222.915H85.4685V223.454C85.6676 223.251 85.907 223.091 86.1712 222.986C86.4354 222.881 86.7187 222.832 87.0029 222.843C87.2683 222.826 87.5342 222.867 87.7817 222.964C88.0293 223.062 88.2523 223.212 88.4349 223.406C88.6175 223.599 88.7552 223.83 88.8381 224.083C88.9211 224.336 88.9473 224.604 88.9148 224.867Z" fill="white"/>
<path d="M127.916 125.954H20.5279C17.4178 125.954 14.8966 128.475 14.8966 131.586V145.989C14.8966 149.099 17.4178 151.62 20.5279 151.62H127.916C131.026 151.62 133.547 149.099 133.547 145.989V131.586C133.547 128.475 131.026 125.954 127.916 125.954Z" fill="#EBEBEB"/>
<path d="M127.924 151.62H128.101C128.221 151.62 128.406 151.62 128.639 151.572C129.335 151.48 130.006 151.253 130.615 150.906C131.607 150.353 132.408 149.512 132.913 148.496C133.23 147.845 133.416 147.138 133.459 146.415C133.459 145.612 133.459 144.808 133.459 143.925C133.459 140.398 133.459 136.068 133.395 131.071C133.261 129.798 132.694 128.61 131.788 127.706C130.823 126.737 129.531 126.164 128.165 126.099H119.168L20.5199 126.163C19.3595 126.166 18.2303 126.539 17.2968 127.228C16.3633 127.917 15.6744 128.887 15.3304 129.995C15.0915 131.135 15.0104 132.303 15.0894 133.465V145.708C15.0696 146.266 15.1318 146.823 15.2742 147.363C15.5523 148.433 16.1524 149.392 16.9933 150.11C17.8257 150.822 18.8529 151.267 19.9415 151.387C21.0259 151.444 22.1747 151.387 23.2833 151.387H42.7156L87.051 151.428L116.943 151.5L87.051 151.564L42.7156 151.612H23.2994C22.1747 151.612 21.0822 151.612 19.9174 151.612C18.7625 151.501 17.6673 151.047 16.7726 150.308C15.8779 149.57 15.2246 148.58 14.8966 147.467C14.7493 146.893 14.6844 146.301 14.7038 145.708V131.69C14.7053 131.076 14.7918 130.465 14.9609 129.875C15.3336 128.676 16.0808 127.628 17.0929 126.884C18.1049 126.141 19.3285 125.742 20.5841 125.745L119.208 125.802H128.213C129.594 125.859 130.909 126.413 131.914 127.362C132.919 128.311 133.547 129.591 133.684 130.967C133.732 136.004 133.684 140.302 133.684 143.82C133.684 144.704 133.684 145.531 133.684 146.319C133.632 147.059 133.436 147.783 133.105 148.447C132.592 149.494 131.763 150.354 130.736 150.906C130.113 151.251 129.427 151.467 128.719 151.54C128.457 151.589 128.191 151.616 127.924 151.62Z" fill="#263238"/>
<path d="M127.916 172.274H20.5279C17.4178 172.274 14.8966 174.795 14.8966 177.905V192.308C14.8966 195.419 17.4178 197.94 20.5279 197.94H127.916C131.026 197.94 133.547 195.419 133.547 192.308V177.905C133.547 174.795 131.026 172.274 127.916 172.274Z" fill="#EBEBEB"/>
<path d="M127.924 197.94H128.1C128.281 197.931 128.46 197.913 128.639 197.884C129.333 197.791 130.004 197.567 130.615 197.225C131.604 196.669 132.404 195.83 132.912 194.815C133.23 194.164 133.415 193.457 133.458 192.734C133.458 191.931 133.458 191.128 133.458 190.236C133.458 186.717 133.458 182.379 133.394 177.383C133.263 176.111 132.695 174.925 131.788 174.025C130.818 173.069 129.525 172.51 128.165 172.458H119.167L20.5195 172.483C19.3584 172.487 18.2291 172.862 17.2957 173.552C16.3624 174.243 15.6737 175.213 15.33 176.322C15.0908 177.46 15.0098 178.625 15.0891 179.785V192.027C15.0682 192.585 15.1304 193.143 15.2738 193.682C15.5519 194.752 16.152 195.711 16.9929 196.43C17.8254 197.141 18.8526 197.586 19.9411 197.707C21.0256 197.771 22.1743 197.707 23.2829 197.707H42.7153L87.0506 197.755L116.942 197.819L125.072 197.859L116.942 197.9L87.0506 197.972L42.7153 198.012H23.299C22.1744 198.012 21.0818 198.052 19.917 198.012C18.7561 197.897 17.6566 197.436 16.7612 196.688C15.8659 195.94 15.2161 194.941 14.8963 193.819C14.7485 193.245 14.6836 192.652 14.7035 192.06V178.017C14.7049 177.401 14.7914 176.787 14.9605 176.194C15.3332 174.995 16.0805 173.947 17.0925 173.204C18.1046 172.461 19.3282 172.061 20.5838 172.065L119.208 172.121L128.165 172.129C129.591 172.187 130.944 172.777 131.956 173.784C132.905 174.725 133.498 175.965 133.635 177.294C133.683 182.331 133.635 186.629 133.635 190.148C133.635 191.031 133.635 191.859 133.635 192.654C133.567 193.604 133.261 194.522 132.746 195.323C132.231 196.125 131.523 196.784 130.687 197.241C130.063 197.581 129.378 197.794 128.671 197.868C128.424 197.911 128.174 197.935 127.924 197.94Z" fill="#263238"/>
<path d="M128.912 292.475C128.912 292.475 129.161 292.475 129.635 292.395C130.33 292.276 130.99 292.002 131.563 291.591C132.504 290.921 133.156 289.919 133.387 288.788C133.487 288.064 133.517 287.332 133.475 286.603C133.475 285.799 133.475 284.996 133.475 284.08C133.475 280.521 133.475 276.175 133.435 271.131C133.417 270.493 133.265 269.866 132.988 269.292C132.711 268.717 132.316 268.208 131.828 267.797C131.315 267.366 130.711 267.058 130.061 266.897C129.383 266.755 128.688 266.706 127.996 266.753H118.919L19.556 266.809C18.3888 266.813 17.2697 267.274 16.4391 268.094C16.028 268.498 15.7007 268.979 15.476 269.51C15.2513 270.041 15.1336 270.611 15.1296 271.187C15.1296 273.581 15.1296 275.959 15.1296 278.32V287.101C15.1028 287.662 15.1378 288.225 15.2341 288.78C15.4708 289.864 16.1076 290.819 17.0175 291.455C17.4649 291.768 17.9659 291.996 18.4956 292.129C19.0365 292.245 19.5899 292.29 20.1424 292.266H43.1093L87.7821 292.314L117.899 292.378L126.084 292.419L117.899 292.459L87.758 292.628L43.0852 292.676H20.1183C19.5333 292.707 18.9469 292.658 18.3751 292.531C17.7978 292.392 17.2525 292.144 16.7684 291.8C15.7728 291.106 15.0757 290.062 14.8164 288.876C14.712 288.293 14.6742 287.7 14.7039 287.109V271.187C14.7039 269.909 15.2117 268.683 16.1156 267.779C17.0195 266.875 18.2455 266.367 19.5238 266.367L118.887 266.431H127.964C128.678 266.384 129.395 266.438 130.093 266.592C130.778 266.766 131.416 267.093 131.957 267.548C132.468 267.984 132.882 268.523 133.172 269.129C133.463 269.735 133.623 270.395 133.644 271.066C133.644 276.119 133.644 280.465 133.644 284.024C133.644 284.916 133.644 285.751 133.644 286.546C133.679 287.284 133.644 288.024 133.539 288.755C133.286 289.912 132.607 290.93 131.635 291.607C131.05 292.024 130.377 292.299 129.667 292.411C129.419 292.459 129.165 292.48 128.912 292.475Z" fill="#E0E0E0"/>
<path d="M100.619 279.541C100.619 279.654 88.6092 279.75 73.796 279.75C58.9827 279.75 46.9811 279.654 46.9811 279.541C46.9811 279.429 58.9827 279.333 73.796 279.333C88.6092 279.333 100.619 279.429 100.619 279.541Z" fill="#E0E0E0"/>
<path d="M85.7959 58.8654C89.7236 54.9377 89.7236 48.5696 85.7959 44.6418C81.8682 40.7141 75.5001 40.7141 71.5723 44.6418C67.6446 48.5695 67.6446 54.9377 71.5723 58.8654C75.5001 62.7931 81.8682 62.7931 85.7959 58.8654Z" fill="#F5F5F5"/>
<path d="M85.1873 59.3829C85.0095 57.7927 84.2449 56.326 83.043 55.2697C81.8411 54.2133 80.2883 53.6434 78.6884 53.6713C77.0955 53.6827 75.5605 54.2695 74.3661 55.3236C73.1718 56.3776 72.3988 57.8279 72.1896 59.407C73.0568 60.2226 74.0788 60.856 75.195 61.27C76.3112 61.6839 77.4991 61.8699 78.6884 61.817C81.0892 61.8836 83.421 61.0102 85.1873 59.3829Z" fill="#E0E0E0"/>
<path d="M78.6884 54.3625C80.8668 54.3625 82.6327 52.5966 82.6327 50.4182C82.6327 48.2398 80.8668 46.4739 78.6884 46.4739C76.51 46.4739 74.7441 48.2398 74.7441 50.4182C74.7441 52.5966 76.51 54.3625 78.6884 54.3625Z" fill="#E0E0E0"/>
<path d="M85.1389 59.0378C85.0125 58.3965 84.8074 57.7732 84.5283 57.1822C84.1645 56.517 83.6827 55.9236 83.1065 55.4309C82.3486 54.7929 81.4762 54.3049 80.5358 53.993L80.335 53.9207L80.5198 53.8243C81.1873 53.4528 81.7318 52.8944 82.0862 52.2176C82.496 51.4597 82.6395 50.5863 82.4939 49.7371C82.3482 48.888 81.9218 48.1123 81.2829 47.5343C80.5828 46.9009 79.6724 46.5502 78.7284 46.5502C77.7843 46.5502 76.8739 46.9009 76.1738 47.5343C75.502 48.1224 75.0631 48.9318 74.9367 49.8157C74.8016 50.6413 74.9428 51.4885 75.3383 52.2257C75.5198 52.5649 75.7528 52.8738 76.0292 53.1414C76.2904 53.3979 76.5817 53.6217 76.8968 53.8082L77.0735 53.9207L76.8727 53.9769C75.9116 54.2315 75.0285 54.72 74.302 55.3988C73.7503 55.9193 73.296 56.5341 72.9605 57.2143C72.7368 57.6471 72.5591 58.1021 72.4303 58.5719C72.3918 58.6933 72.3597 58.8167 72.3339 58.9414C72.3257 58.9857 72.3122 59.0289 72.2937 59.07C72.2937 59.07 72.2937 59.0218 72.2937 58.9334C72.2937 58.845 72.2937 58.7245 72.366 58.5558C72.4811 58.077 72.6453 57.6112 72.8561 57.1661C73.1891 56.4654 73.6432 55.829 74.1976 55.2863C74.9318 54.5787 75.8325 54.0675 76.8164 53.8002V53.9608C76.4894 53.7709 76.1848 53.5445 75.9087 53.286C75.6213 53.0003 75.3753 52.6758 75.1777 52.3221C74.763 51.5506 74.6081 50.6661 74.7358 49.7996C74.8739 48.8686 75.3345 48.0157 76.0372 47.3897C76.7832 46.7259 77.7459 46.3574 78.7444 46.3534C79.4502 46.3453 80.1457 46.5234 80.7608 46.8696C81.3758 47.2159 81.8888 47.7181 82.248 48.3257C82.6072 48.9333 82.7999 49.6249 82.8068 50.3307C82.8136 51.0365 82.6344 51.7317 82.2871 52.3462C81.8982 53.03 81.321 53.5876 80.6242 53.9528V53.7841C81.585 54.1132 82.4739 54.6231 83.243 55.2863C83.8233 55.7981 84.3028 56.4139 84.6569 57.1018C84.7851 57.3597 84.8899 57.6285 84.9702 57.9051C85.0406 58.1 85.0891 58.3021 85.1148 58.5076L85.171 58.8932C85.1469 58.9977 85.1469 59.0378 85.1389 59.0378Z" fill="#263238"/>
<path d="M88.746 51.7514C88.7362 51.6983 88.7362 51.6438 88.746 51.5907C88.746 51.4702 88.746 51.3096 88.746 51.1087C88.746 50.9079 88.746 50.8918 88.746 50.7633C88.746 50.6348 88.7059 50.4902 88.6818 50.3375C88.6355 49.9872 88.5629 49.6408 88.4648 49.3013C88.2272 48.3643 87.8508 47.468 87.3482 46.6423C86.6888 45.5449 85.8242 44.5849 84.8017 43.8146C83.5405 42.8737 82.0723 42.2484 80.52 41.991C78.7666 41.6669 76.9585 41.8167 75.2823 42.4248C74.8364 42.5891 74.4017 42.7823 73.981 43.0032C73.5583 43.2422 73.1529 43.5106 72.7679 43.8065C72.3685 44.1013 71.9901 44.4234 71.6353 44.7705C70.5574 45.8779 69.7349 47.2077 69.2253 48.6666C68.5506 50.7063 68.5506 52.909 69.2253 54.9486C69.5526 55.9332 70.0324 56.8602 70.6472 57.696C70.9476 58.1005 71.2751 58.4843 71.6272 58.8447C71.981 59.1899 72.3567 59.5119 72.7519 59.8087C73.143 60.0999 73.5507 60.3681 73.9729 60.612C74.3938 60.8304 74.8285 61.0209 75.2743 61.1824C76.9507 61.7891 78.7577 61.9415 80.512 61.6242C81.9033 61.3605 83.2234 60.8063 84.3861 59.9979C85.5488 59.1896 86.528 58.1452 87.2599 56.9328C87.7624 56.107 88.1388 55.2108 88.3765 54.2738C88.4746 53.9343 88.5471 53.5879 88.5934 53.2375C88.5934 53.0849 88.6416 52.9483 88.6577 52.8198C88.6737 52.6913 88.6577 52.5708 88.6577 52.4663C88.6577 52.3619 88.6577 52.1048 88.6577 51.9844C88.6478 51.9312 88.6478 51.8768 88.6577 51.8237V52.4663C88.6577 52.5708 88.6577 52.6913 88.6577 52.8198C88.6577 52.9483 88.6577 53.0929 88.6014 53.2456C88.5652 53.5983 88.5007 53.9475 88.4086 54.2899C88.1859 55.2444 87.8145 56.1579 87.3081 56.9971C86.6559 58.1203 85.7877 59.1032 84.7535 59.889C83.5021 60.8551 82.0408 61.5129 80.4879 61.809C78.7002 62.1407 76.8565 61.991 75.1458 61.3752C74.6914 61.2125 74.2486 61.0193 73.8203 60.7968C73.3848 60.5578 72.9661 60.2894 72.5671 59.9935C72.1658 59.6889 71.7823 59.3617 71.4184 59.0134C71.0581 58.6422 70.7227 58.2477 70.4142 57.8325C69.784 56.981 69.2932 56.0346 68.9602 55.0289C68.2532 52.9451 68.2532 50.6862 68.9602 48.6024C69.2932 47.5967 69.784 46.6503 70.4142 45.7988C70.7228 45.3861 71.0582 44.9943 71.4184 44.6259C71.798 44.2519 72.2062 43.9081 72.6394 43.5977C73.0326 43.2975 73.449 43.0289 73.8846 42.7943C74.3128 42.5718 74.7557 42.3786 75.21 42.216C76.812 41.6316 78.5355 41.4615 80.2208 41.7213C81.906 41.9811 83.4983 42.6625 84.8499 43.7021C85.8801 44.4922 86.7476 45.4742 87.4045 46.5941C87.9109 47.4332 88.2823 48.3468 88.505 49.3013C88.5971 49.6436 88.6616 49.9929 88.6978 50.3456C88.6978 50.4982 88.746 50.6428 88.7541 50.7713C88.7621 50.8999 88.7541 51.0204 88.7541 51.1248V51.7675L88.746 51.7514Z" fill="#263238"/>
<path d="M140.825 93.5807C140.825 93.7012 112.572 93.7896 77.7324 93.7896C42.8924 93.7896 14.6315 93.7012 14.6315 93.5807C14.6315 93.4602 42.8763 93.3719 77.7324 93.3719C112.589 93.3719 140.825 93.4683 140.825 93.5807Z" fill="#E0E0E0"/>
<path d="M140.825 252.341C140.825 252.453 112.572 252.55 77.7324 252.55C42.8924 252.55 14.6315 252.453 14.6315 252.341C14.6315 252.228 42.8763 252.132 77.7324 252.132C112.589 252.132 140.825 252.228 140.825 252.341Z" fill="#E0E0E0"/>
<path d="M26.826 184.693L28.6174 185.705L28.1515 186.509L26.3199 185.432V187.489H25.4122V185.432L23.5887 186.509L23.1147 185.705L24.9302 184.693L23.1147 183.697L23.5887 182.894L25.4122 183.962V181.922H26.3199V183.962L28.1515 182.894L28.6174 183.697L26.826 184.693Z" fill="white"/>
<path d="M33.1722 184.693L34.9797 185.705L34.5057 186.509L32.6822 185.432V187.489H31.7664V185.432L29.9348 186.509L29.4689 185.705L31.2764 184.693L29.4689 183.697L29.9348 182.894L31.7664 183.962V181.922H32.6741V183.962L34.4977 182.894L34.9716 183.697L33.1722 184.693Z" fill="white"/>
<path d="M39.5182 184.693L41.3177 185.706L40.8517 186.509L38.9961 185.465V187.521H38.0883V185.465L36.2567 186.541L35.7908 185.738L37.6063 184.726L35.7908 183.729L36.2567 182.926L38.0883 183.995V181.954H38.9961V183.995L40.8276 182.926L41.2936 183.729L39.5182 184.693Z" fill="white"/>
<path d="M45.8645 184.693L47.6639 185.705L47.198 186.509L45.3664 185.432V187.489H44.4587V185.432L42.6351 186.509L42.1612 185.705L43.9767 184.693L42.2094 183.697L42.6833 182.894L44.5069 183.962V181.922H45.4226V183.962L47.2542 182.894L47.7201 183.697L45.8645 184.693Z" fill="white"/>
<path d="M27.1872 138.76V140.8H26.7052V138.776C26.7262 138.626 26.7134 138.474 26.6677 138.331C26.622 138.187 26.5446 138.056 26.4412 137.947C26.3378 137.837 26.2111 137.752 26.0705 137.698C25.9298 137.644 25.7789 137.623 25.6288 137.635C25.4581 137.623 25.287 137.649 25.1274 137.711C24.9678 137.773 24.8237 137.868 24.7051 137.992C24.5864 138.115 24.4962 138.263 24.4406 138.424C24.3851 138.586 24.3657 138.758 24.3836 138.928V140.8H23.9016V137.265H24.3595V137.924C24.5037 137.698 24.7056 137.515 24.9443 137.394C25.183 137.272 25.4498 137.217 25.7171 137.233C25.919 137.218 26.1219 137.247 26.3112 137.319C26.5004 137.391 26.6714 137.504 26.8119 137.65C26.9524 137.796 27.0589 137.971 27.1238 138.163C27.1886 138.355 27.2103 138.558 27.1872 138.76Z" fill="white"/>
<path d="M31.1961 138.623V140.8H30.7302V140.246C30.5979 140.446 30.4138 140.607 30.1975 140.712C29.9811 140.817 29.7405 140.861 29.5011 140.84C28.6978 140.84 28.1997 140.414 28.1997 139.796C28.1997 139.177 28.5532 138.784 29.5734 138.784H30.7141V138.567C30.7141 137.956 30.3687 137.627 29.7019 137.627C29.2683 137.619 28.8464 137.767 28.513 138.045L28.2961 137.683C28.7095 137.357 29.224 137.187 29.7501 137.201C29.9446 137.172 30.1432 137.188 30.3302 137.249C30.5172 137.31 30.6875 137.413 30.8278 137.551C30.968 137.689 31.0742 137.858 31.1382 138.044C31.2021 138.23 31.2219 138.428 31.1961 138.623ZM30.7141 139.764V139.193H29.5895C28.8986 139.193 28.6737 139.466 28.6737 139.828C28.6737 140.189 29.003 140.503 29.5734 140.503C29.8174 140.517 30.0596 140.453 30.2648 140.32C30.4699 140.187 30.6273 139.992 30.7141 139.764Z" fill="white"/>
<path d="M38.4015 138.759V140.8H37.9195V138.775C37.9195 138.028 37.5339 137.635 36.8913 137.635C36.7238 137.628 36.5568 137.657 36.4019 137.721C36.247 137.785 36.1077 137.882 35.9939 138.005C35.8801 138.128 35.7943 138.274 35.7426 138.433C35.6909 138.593 35.6744 138.762 35.6943 138.928V140.8H35.2123V138.775C35.2123 138.028 34.8348 137.635 34.1841 137.635C34.0166 137.628 33.8496 137.657 33.6947 137.721C33.5398 137.785 33.4006 137.882 33.2867 138.005C33.1729 138.128 33.0871 138.274 33.0354 138.433C32.9837 138.593 32.9672 138.762 32.9871 138.928V140.8H32.5051V137.265H32.963V137.916C33.101 137.696 33.2951 137.517 33.5252 137.397C33.7553 137.277 34.0132 137.22 34.2724 137.233C34.5369 137.214 34.801 137.276 35.0292 137.411C35.2575 137.546 35.4391 137.747 35.5497 137.988C35.6943 137.747 35.9012 137.55 36.1487 137.417C36.3961 137.284 36.6749 137.221 36.9555 137.233C37.1566 137.217 37.3587 137.246 37.5471 137.318C37.7354 137.39 37.9052 137.504 38.0439 137.65C38.1826 137.797 38.2867 137.972 38.3486 138.164C38.4105 138.356 38.4286 138.56 38.4015 138.759Z" fill="white"/>
<path d="M42.8361 139.193H39.8477C39.8569 139.367 39.9007 139.538 39.9767 139.695C40.0528 139.852 40.1594 139.992 40.2903 140.108C40.4213 140.223 40.574 140.311 40.7394 140.366C40.9048 140.422 41.0796 140.443 41.2536 140.43C41.4586 140.437 41.6627 140.399 41.8514 140.318C42.0402 140.238 42.209 140.117 42.3461 139.964L42.6192 140.278C42.3608 140.534 42.0339 140.709 41.6779 140.784C41.322 140.859 40.952 140.829 40.6126 140.698C40.2732 140.567 39.9787 140.341 39.7646 140.047C39.5506 139.753 39.426 139.404 39.4059 139.041C39.3926 138.805 39.4281 138.569 39.5101 138.347C39.592 138.126 39.7187 137.924 39.8823 137.753C40.0458 137.583 40.2427 137.448 40.4607 137.357C40.6787 137.266 40.913 137.221 41.1491 137.225C41.3846 137.221 41.6183 137.266 41.8354 137.357C42.0526 137.448 42.2485 137.583 42.4108 137.754C42.5732 137.925 42.6983 138.127 42.7784 138.348C42.8585 138.57 42.8919 138.806 42.8763 139.041L42.8361 139.193ZM39.8477 138.832H42.3782C42.3528 138.514 42.2085 138.217 41.9741 138C41.7396 137.784 41.4321 137.663 41.113 137.663C40.7938 137.663 40.4864 137.784 40.2519 138C40.0174 138.217 39.8731 138.514 39.8477 138.832Z" fill="white"/>
<path d="M49.8168 139.032C49.8168 140.189 49.391 140.872 48.6921 140.872C48.5918 140.878 48.4914 140.862 48.3973 140.827C48.3032 140.792 48.2176 140.737 48.1458 140.667C48.074 140.596 48.0176 140.512 47.9803 140.419C47.9429 140.325 47.9255 140.225 47.929 140.125C47.7913 140.36 47.5923 140.554 47.3533 140.686C47.1142 140.817 46.844 140.882 46.5714 140.872C46.1264 140.842 45.7094 140.644 45.4049 140.318C45.1003 139.992 44.9309 139.563 44.9309 139.117C44.9309 138.671 45.1003 138.241 45.4049 137.915C45.7094 137.59 46.1264 137.392 46.5714 137.361C46.8381 137.352 47.1025 137.413 47.3381 137.539C47.5736 137.664 47.7719 137.85 47.9129 138.076V137.394H48.3547V139.996C48.3547 140.374 48.5475 140.51 48.7725 140.51C49.1982 140.51 49.4714 139.988 49.4714 139.073C49.4816 138.709 49.4151 138.348 49.2763 138.012C49.1374 137.676 48.9293 137.373 48.6656 137.123C48.4018 136.873 48.0883 136.681 47.7454 136.56C47.4026 136.439 47.0381 136.392 46.6758 136.422C46.3052 136.401 45.9344 136.457 45.586 136.585C45.2376 136.713 44.9189 136.911 44.6495 137.166C44.38 137.421 44.1654 137.729 44.0187 138.07C43.8721 138.41 43.7964 138.778 43.7964 139.149C43.7964 139.52 43.8721 139.887 44.0187 140.228C44.1654 140.569 44.38 140.877 44.6495 141.132C44.9189 141.387 45.2376 141.585 45.586 141.713C45.9344 141.841 46.3052 141.896 46.6758 141.876C47.1262 141.875 47.5707 141.773 47.9772 141.579L48.0896 141.908C47.6483 142.119 47.1648 142.226 46.6758 142.222C45.8598 142.222 45.0772 141.897 44.5002 141.32C43.9232 140.743 43.5991 139.961 43.5991 139.145C43.5991 138.329 43.9232 137.546 44.5002 136.969C45.0772 136.392 45.8598 136.068 46.6758 136.068C47.0805 136.04 47.4866 136.097 47.8684 136.234C48.2503 136.37 48.5998 136.585 48.8948 136.863C49.1898 137.142 49.424 137.478 49.5827 137.851C49.7414 138.225 49.8211 138.627 49.8168 139.032ZM47.9209 139.113C47.9084 138.86 47.822 138.617 47.6724 138.413C47.5229 138.208 47.3168 138.053 47.0796 137.965C46.8425 137.876 46.5847 137.86 46.3382 137.917C46.0917 137.974 45.8673 138.102 45.6928 138.285C45.5183 138.468 45.4013 138.698 45.3564 138.947C45.3115 139.196 45.3406 139.453 45.4401 139.686C45.5396 139.918 45.7051 140.117 45.9162 140.256C46.1273 140.396 46.3746 140.47 46.6276 140.47C46.804 140.474 46.9792 140.441 47.1422 140.373C47.3051 140.306 47.4521 140.205 47.5738 140.077C47.6955 139.949 47.7892 139.797 47.849 139.631C47.9088 139.465 47.9333 139.289 47.9209 139.113Z" fill="white"/>
<path d="M56.7334 138.759V140.8H56.2514V138.775C56.2514 138.028 55.8739 137.635 55.2232 137.635C55.056 137.627 54.8893 137.657 54.7347 137.721C54.5801 137.785 54.4413 137.882 54.328 138.005C54.2148 138.128 54.1298 138.274 54.0791 138.434C54.0284 138.593 54.0131 138.762 54.0343 138.928V140.8H53.5523V138.775C53.5523 138.028 53.1667 137.635 52.516 137.635C52.3485 137.628 52.1816 137.657 52.0266 137.721C51.8717 137.785 51.7325 137.882 51.6186 138.005C51.5048 138.128 51.419 138.274 51.3673 138.433C51.3156 138.593 51.2991 138.762 51.319 138.928V140.8H50.8371V137.265H51.303V137.916C51.4404 137.695 51.6343 137.516 51.8645 137.396C52.0948 137.276 52.353 137.219 52.6124 137.233C52.8759 137.213 53.1392 137.275 53.3663 137.41C53.5934 137.545 53.7734 137.747 53.8816 137.988C54.0306 137.749 54.2396 137.554 54.4877 137.422C54.7358 137.289 55.0143 137.224 55.2955 137.233C55.4959 137.218 55.6971 137.248 55.8844 137.321C56.0718 137.393 56.2405 137.507 56.3783 137.653C56.5161 137.8 56.6195 137.975 56.6809 138.166C56.7424 138.357 56.7603 138.56 56.7334 138.759Z" fill="white"/>
<path d="M60.7423 138.623V140.8H60.2764V140.246C60.1441 140.446 59.96 140.607 59.7437 140.712C59.5273 140.817 59.2867 140.861 59.0473 140.84C58.2439 140.84 57.7459 140.414 57.7459 139.796C57.7459 139.177 58.0993 138.784 59.1276 138.784H60.2603V138.567C60.2603 137.956 59.9149 137.627 59.2481 137.627C58.8145 137.619 58.3925 137.767 58.0592 138.045L57.8423 137.683C58.2569 137.36 58.7706 137.189 59.2963 137.201C59.4908 137.172 59.6894 137.188 59.8764 137.249C60.0634 137.31 60.2337 137.413 60.3739 137.551C60.5141 137.689 60.6204 137.858 60.6843 138.044C60.7482 138.23 60.7681 138.428 60.7423 138.623ZM60.2603 139.764V139.193H59.1356C58.4448 139.193 58.2198 139.466 58.2198 139.828C58.2198 140.189 58.5572 140.503 59.1276 140.503C59.3703 140.515 59.6107 140.45 59.8142 140.318C60.0178 140.185 60.1739 139.991 60.2603 139.764Z" fill="white"/>
<path d="M61.9471 136.133C61.9482 136.087 61.9581 136.043 61.9765 136.001C61.9948 135.96 62.0211 135.922 62.054 135.891C62.0868 135.859 62.1254 135.835 62.1678 135.818C62.2101 135.802 62.2552 135.794 62.3006 135.795C62.3498 135.788 62.4001 135.791 62.448 135.805C62.4959 135.818 62.5402 135.842 62.578 135.875C62.6158 135.907 62.6462 135.947 62.667 135.992C62.6878 136.038 62.6985 136.087 62.6985 136.137C62.6985 136.187 62.6878 136.236 62.667 136.281C62.6462 136.326 62.6158 136.366 62.578 136.399C62.5402 136.431 62.4959 136.455 62.448 136.469C62.4001 136.483 62.3498 136.486 62.3006 136.478C62.2545 136.479 62.2088 136.471 62.1659 136.454C62.1231 136.437 62.0841 136.412 62.0511 136.38C62.0182 136.348 61.992 136.309 61.9742 136.267C61.9563 136.224 61.9471 136.179 61.9471 136.133ZM62.0516 137.265H62.5335V140.8H62.0516V137.265Z" fill="white"/>
<path d="M63.8991 135.795H64.3811V140.8H63.8991V135.795Z" fill="white"/>
<path d="M65.3933 140.495C65.3922 140.446 65.4008 140.399 65.4185 140.354C65.4362 140.309 65.4626 140.268 65.4963 140.234C65.53 140.199 65.5702 140.172 65.6146 140.153C65.659 140.135 65.7067 140.125 65.7548 140.125C65.8514 140.127 65.9434 140.167 66.0109 140.236C66.0785 140.305 66.1163 140.398 66.1163 140.495C66.1164 140.592 66.0788 140.686 66.0115 140.756C65.9441 140.826 65.8521 140.868 65.7548 140.872C65.7063 140.871 65.6584 140.861 65.614 140.841C65.5696 140.821 65.5294 140.793 65.4958 140.758C65.4623 140.723 65.4359 140.682 65.4183 140.637C65.4008 140.591 65.3923 140.543 65.3933 140.495Z" fill="white"/>
<path d="M66.6868 139.049C66.6788 138.806 66.7211 138.564 66.811 138.339C66.901 138.113 67.0366 137.909 67.2094 137.738C67.3822 137.568 67.5884 137.435 67.8151 137.348C68.0417 137.261 68.2839 137.222 68.5264 137.233C68.8004 137.222 69.0727 137.281 69.3173 137.405C69.562 137.528 69.7709 137.713 69.9242 137.94L69.5627 138.189C69.4488 138.02 69.2941 137.883 69.1129 137.79C68.9316 137.698 68.7299 137.652 68.5264 137.659C68.1579 137.659 67.8044 137.805 67.5438 138.066C67.2831 138.326 67.1367 138.68 67.1367 139.049C67.1367 139.417 67.2831 139.771 67.5438 140.031C67.8044 140.292 68.1579 140.438 68.5264 140.438C68.7293 140.446 68.9308 140.403 69.1121 140.311C69.2934 140.22 69.4485 140.084 69.5627 139.916L69.9242 140.165C69.7709 140.392 69.562 140.577 69.3173 140.7C69.0727 140.824 68.8004 140.883 68.5264 140.872C68.2835 140.882 68.0412 140.842 67.8145 140.754C67.5878 140.666 67.3817 140.533 67.209 140.361C67.0364 140.19 66.9009 139.985 66.811 139.759C66.7212 139.534 66.6789 139.292 66.6868 139.049Z" fill="white"/>
<path d="M70.4462 139.048C70.4478 138.69 70.5556 138.339 70.7561 138.042C70.9565 137.744 71.2406 137.513 71.5725 137.377C71.9044 137.241 72.2692 137.206 72.6208 137.277C72.9724 137.348 73.2952 137.521 73.5483 137.776C73.8014 138.03 73.9735 138.353 74.0429 138.705C74.1123 139.057 74.0759 139.422 73.9382 139.753C73.8006 140.084 73.5679 140.367 73.2695 140.567C72.9711 140.766 72.6204 140.872 72.2617 140.872C72.0205 140.88 71.7802 140.838 71.5558 140.749C71.3315 140.66 71.1278 140.526 70.9575 140.355C70.7872 140.184 70.654 139.98 70.566 139.755C70.478 139.53 70.4373 139.29 70.4462 139.048ZM73.5872 139.048C73.5746 138.789 73.4863 138.54 73.3333 138.33C73.1802 138.121 72.969 137.961 72.726 137.871C72.483 137.78 72.2187 137.763 71.966 137.821C71.7132 137.879 71.4831 138.01 71.3041 138.198C71.1251 138.386 71.0051 138.622 70.9589 138.877C70.9128 139.132 70.9425 139.395 71.0445 139.634C71.1464 139.872 71.3161 140.075 71.5324 140.218C71.7488 140.361 72.0024 140.438 72.2617 140.438C72.4423 140.442 72.6218 140.408 72.7886 140.339C72.9554 140.269 73.1059 140.166 73.2306 140.035C73.3553 139.904 73.4514 139.749 73.5128 139.579C73.5742 139.409 73.5995 139.229 73.5872 139.048Z" fill="white"/>
<path d="M80.9618 138.759V140.8H80.4798V138.775C80.4798 138.028 80.0942 137.635 79.4515 137.635C79.2841 137.628 79.1171 137.657 78.9622 137.721C78.8072 137.785 78.668 137.882 78.5542 138.005C78.4403 138.128 78.3546 138.274 78.3028 138.433C78.2511 138.593 78.2346 138.762 78.2546 138.928V140.8H77.7726V138.775C77.7726 138.028 77.395 137.635 76.7443 137.635C76.5769 137.628 76.4099 137.657 76.255 137.721C76.1 137.785 75.9608 137.882 75.847 138.005C75.7331 138.128 75.6474 138.274 75.5956 138.433C75.5439 138.593 75.5275 138.762 75.5474 138.928V140.8H75.0654V137.265H75.5233V137.916C75.6613 137.696 75.8553 137.517 76.0855 137.397C76.3156 137.277 76.5735 137.22 76.8327 137.233C77.0972 137.214 77.3612 137.276 77.5895 137.411C77.8178 137.546 77.9994 137.747 78.11 137.988C78.2545 137.747 78.4614 137.55 78.7089 137.417C78.9564 137.284 79.2352 137.221 79.5158 137.233C79.7168 137.217 79.919 137.246 80.1073 137.318C80.2956 137.39 80.4654 137.504 80.6041 137.65C80.7429 137.797 80.847 137.972 80.9089 138.164C80.9708 138.356 80.9888 138.56 80.9618 138.759Z" fill="white"/>
<path d="M19.628 32.9861C19.5804 32.9865 19.5332 32.9775 19.4891 32.9596C19.445 32.9416 19.4048 32.9152 19.371 32.8817L15.5954 29.572C15.5514 29.5351 15.5161 29.489 15.4919 29.4369C15.4677 29.3849 15.4551 29.3282 15.4551 29.2708C15.4551 29.2134 15.4677 29.1567 15.4919 29.1046C15.5161 29.0526 15.5514 29.0065 15.5954 28.9695L19.371 25.8366C19.4101 25.8023 19.4557 25.7764 19.5051 25.7602C19.5545 25.744 19.6066 25.738 19.6584 25.7425C19.7102 25.747 19.7605 25.7619 19.8064 25.7864C19.8522 25.8108 19.8927 25.8443 19.9253 25.8848C19.9597 25.9245 19.9859 25.9708 20.0021 26.0209C20.0184 26.0709 20.0244 26.1237 20.0199 26.1761C20.0154 26.2285 20.0005 26.2795 19.976 26.3261C19.9514 26.3726 19.9178 26.4138 19.8771 26.4471L16.5031 29.2828L19.9253 32.2872C19.9654 32.3211 19.9984 32.3627 20.0222 32.4096C20.046 32.4564 20.0602 32.5075 20.0639 32.5599C20.0677 32.6123 20.0609 32.665 20.044 32.7147C20.0271 32.7645 20.0004 32.8103 19.9654 32.8496C19.9231 32.8963 19.8708 32.9329 19.8124 32.9565C19.754 32.9802 19.6909 32.9903 19.628 32.9861Z" fill="#263238"/>
<path d="M129.193 29.3631C129.193 29.7619 129.075 30.1517 128.853 30.4833C128.632 30.8149 128.317 31.0733 127.948 31.2259C127.58 31.3786 127.175 31.4185 126.783 31.3407C126.392 31.2629 126.033 31.0708 125.751 30.7889C125.469 30.5069 125.277 30.1476 125.199 29.7565C125.121 29.3653 125.161 28.9599 125.314 28.5915C125.467 28.223 125.725 27.9081 126.057 27.6866C126.388 27.465 126.778 27.3467 127.177 27.3467C127.712 27.3467 128.224 27.5592 128.603 27.9373C128.981 28.3155 129.193 28.8283 129.193 29.3631Z" fill="#263238"/>
<path d="M135.009 29.3631C135.009 29.7616 134.891 30.1511 134.67 30.4825C134.449 30.8139 134.134 31.0723 133.767 31.2252C133.399 31.378 132.994 31.4184 132.603 31.3413C132.212 31.2641 131.852 31.0729 131.57 30.7917C131.288 30.5105 131.095 30.152 131.016 29.7614C130.938 29.3708 130.977 28.9656 131.128 28.597C131.279 28.2285 131.536 27.913 131.867 27.6905C132.198 27.468 132.587 27.3484 132.985 27.3468C133.25 27.3457 133.514 27.3971 133.759 27.4979C134.005 27.5988 134.228 27.7472 134.416 27.9345C134.604 28.1218 134.753 28.3445 134.855 28.5896C134.957 28.8348 135.009 29.0976 135.009 29.3631Z" fill="#263238"/>
<path d="M140.825 29.3631C140.825 29.7622 140.707 30.1524 140.485 30.4842C140.263 30.8159 139.947 31.0743 139.579 31.2267C139.21 31.3791 138.804 31.4185 138.412 31.3401C138.021 31.2616 137.662 31.0688 137.38 30.786C137.098 30.5032 136.907 30.1432 136.83 29.7515C136.753 29.3599 136.794 28.9542 136.948 28.5859C137.102 28.2176 137.362 27.9033 137.694 27.6827C138.027 27.4621 138.418 27.3452 138.817 27.3468C139.35 27.3489 139.861 27.5623 140.237 27.9402C140.614 28.3181 140.825 28.8297 140.825 29.3631Z" fill="#263238"/>
</svg>
