<svg width="139" height="219" viewBox="0 0 139 219" fill="none" xmlns="http://www.w3.org/2000/svg">
<path d="M65.4227 156.252C65.4227 156.252 123.048 126.23 135.544 142.792C148.039 159.354 123 172.364 118.162 175.289C113.324 178.214 64.378 194.84 64.378 194.84L51.4644 181.059L65.4227 156.252Z" fill="#263238"/>
<path d="M88.1479 172.316L111.122 184.683L132.12 189.232C132.478 189.311 132.815 189.462 133.112 189.676C133.409 189.891 133.659 190.164 133.846 190.479C134.034 190.793 134.155 191.143 134.202 191.506C134.249 191.869 134.222 192.238 134.121 192.59C134.005 193 133.792 193.376 133.5 193.685C133.207 193.994 132.844 194.228 132.442 194.366C127.226 196.183 108.029 202.764 106.397 201.767C104.509 200.61 81.2933 190.324 81.2933 190.324L88.1479 172.316Z" fill="#618BF8"/>
<g opacity="0.6">
<path d="M134.121 192.591L104.83 200.932L105.811 201.438C106.664 201.874 107.644 201.991 108.575 201.767C111.058 201.181 117.889 199.357 132.402 194.407C132.818 194.264 133.194 194.021 133.494 193.699C133.794 193.376 134.009 192.984 134.121 192.558V192.591Z" fill="white"/>
</g>
<g opacity="0.6">
<path d="M99.7596 192.373C100.115 192.193 100.524 192.15 100.909 192.254C101.293 192.358 101.625 192.601 101.841 192.936C102.033 193.285 102.084 193.694 101.984 194.08C101.884 194.465 101.64 194.798 101.302 195.009C100.925 195.197 100.491 195.238 100.085 195.125C99.6784 195.012 99.328 194.754 99.1007 194.398C98.9367 194.014 98.9289 193.581 99.0789 193.191C99.2289 192.801 99.5249 192.485 99.9042 192.309" fill="white"/>
</g>
<path d="M121.256 192.727C121.385 192.631 120.452 191.482 120.452 189.77C120.452 188.058 121.433 186.933 121.304 186.829C121.176 186.724 120.926 186.981 120.573 187.488C120.128 188.163 119.888 188.953 119.882 189.762C119.863 190.57 120.081 191.366 120.509 192.052C120.878 192.566 121.208 192.775 121.256 192.727Z" fill="#263238"/>
<path d="M125.21 192.655C125.37 192.599 124.993 191.466 125.258 190.091C125.523 188.717 126.254 187.785 126.126 187.681C125.997 187.576 124.977 188.42 124.695 189.995C124.414 191.57 125.089 192.751 125.21 192.655Z" fill="#263238"/>
<path d="M115.695 193.78C115.856 193.724 115.269 191.988 115.502 189.81C115.735 187.632 116.611 186.033 116.458 185.953C116.306 185.873 115.149 187.415 114.932 189.754C114.715 192.092 115.575 193.86 115.695 193.78Z" fill="#263238"/>
<path d="M108.398 190.598C108.567 190.598 108.68 189.055 109.475 187.383C110.271 185.712 111.34 184.563 111.227 184.434C111.115 184.306 109.781 185.302 108.953 187.142C108.125 188.983 108.246 190.622 108.398 190.598Z" fill="#263238"/>
<path d="M101.56 187.142C101.729 187.142 101.616 185.447 102.596 183.727C103.577 182.007 105.007 181.18 104.935 181.035C104.863 180.89 104.485 181.083 103.906 181.461C103.151 181.967 102.528 182.648 102.09 183.446C101.648 184.242 101.4 185.131 101.367 186.041C101.359 186.732 101.488 187.15 101.56 187.142Z" fill="#263238"/>
<path d="M101.271 183.108C101.271 183.108 101.005 182.867 100.411 182.626C99.5645 182.293 98.6602 182.132 97.7509 182.152C97.0839 182.108 96.4207 182.282 95.8625 182.65C95.6937 182.792 95.5712 182.981 95.5111 183.193C95.4509 183.405 95.4557 183.63 95.525 183.84C95.694 184.238 96.0026 184.561 96.3929 184.748C97.2007 185.092 98.103 185.143 98.9448 184.894C99.7866 184.645 100.515 184.11 101.005 183.382C101.477 182.652 101.721 181.798 101.705 180.929C101.689 180.06 101.415 179.216 100.917 178.504C100.792 178.324 100.63 178.173 100.441 178.062C100.253 177.951 100.042 177.882 99.8242 177.861C99.6025 177.863 99.3872 177.935 99.2084 178.066C99.0297 178.198 98.8966 178.381 98.8277 178.592C98.6572 179.226 98.6572 179.895 98.8277 180.529C99.0071 181.417 99.3446 182.267 99.8242 183.036C100.17 183.574 100.419 183.84 100.451 183.84C99.8799 182.789 99.4683 181.66 99.2295 180.489C99.0891 179.935 99.0891 179.355 99.2295 178.801C99.2629 178.684 99.3337 178.582 99.4309 178.509C99.5282 178.437 99.6466 178.398 99.7679 178.399C99.9107 178.423 100.047 178.477 100.167 178.558C100.288 178.638 100.39 178.743 100.467 178.865C100.874 179.495 101.09 180.229 101.09 180.979C101.09 181.729 100.874 182.462 100.467 183.092C100.05 183.705 99.4381 184.159 98.7302 184.379C98.0224 184.6 97.2608 184.574 96.5697 184.306C96.2945 184.185 96.07 183.972 95.9348 183.703C95.8919 183.588 95.8859 183.463 95.9176 183.345C95.9493 183.227 96.0171 183.122 96.1116 183.044C96.5868 182.728 97.1485 182.568 97.7188 182.586C98.9244 182.547 100.127 182.724 101.271 183.108Z" fill="#263238"/>
<path d="M96.3847 175.257C96.3847 175.257 42.0864 142.358 34.7496 138.292C28.4415 134.78 8.51254 127.042 1.48919 146.127C-5.53415 165.212 32.2826 193.41 32.2826 193.41L64.3779 194.848L75.0897 190.758L87.256 194.503L96.3847 175.257Z" fill="#263238"/>
<path d="M58.2063 195.508L33.8656 204.95L16.7653 217.944C16.4733 218.166 16.1387 218.326 15.7823 218.414C15.4259 218.501 15.0553 218.514 14.6935 218.453C14.3317 218.391 13.9866 218.255 13.6794 218.054C13.3723 217.853 13.1097 217.591 12.9081 217.285C12.6779 216.932 12.5346 216.529 12.4899 216.11C12.4452 215.691 12.5004 215.268 12.651 214.874C14.6599 209.739 22.1493 190.871 23.9655 190.284C26.0708 189.601 48.9811 178.656 48.9811 178.656L58.2063 195.508Z" fill="#618BF8"/>
<g opacity="0.6">
<path d="M12.9081 217.244L25.5968 189.545L24.5762 189.963C23.6911 190.326 22.9645 190.992 22.5271 191.843C21.3619 194.117 18.2761 200.474 12.6189 214.737C12.4578 215.147 12.4 215.59 12.4504 216.027C12.5009 216.464 12.6581 216.882 12.9081 217.244Z" fill="white"/>
</g>
<g opacity="0.6">
<path d="M35.4165 191.289C35.3226 191.676 35.0881 192.015 34.7584 192.239C34.4287 192.463 34.0274 192.557 33.6325 192.502C33.2433 192.422 32.8995 192.196 32.6723 191.87C32.445 191.544 32.3515 191.143 32.4111 190.75C32.514 190.341 32.7646 189.984 33.1146 189.748C33.4647 189.512 33.8895 189.414 34.3075 189.472C34.7069 189.597 35.0419 189.872 35.2415 190.24C35.441 190.608 35.4894 191.039 35.3763 191.441" fill="white"/>
</g>
<path d="M21.1692 207.36C21.1692 207.529 22.6478 207.545 23.9175 208.702C25.1872 209.86 25.4363 211.29 25.597 211.258C25.7577 211.226 25.7256 210.872 25.597 210.277C25.3716 209.502 24.93 208.806 24.3237 208.273C23.7174 207.739 22.9717 207.389 22.1737 207.264C21.5389 207.2 21.1692 207.312 21.1692 207.36Z" fill="#263238"/>
<path d="M18.6698 210.43C18.6135 210.591 19.7145 211.041 20.5823 212.142C21.4502 213.243 21.6993 214.392 21.86 214.368C22.0207 214.344 22.0448 213.018 21.0564 211.78C20.068 210.543 18.6698 210.277 18.6698 210.43Z" fill="#263238"/>
<path d="M23.9896 202.475C23.9253 202.635 25.5968 203.318 27.1316 204.885C28.6665 206.452 29.2772 208.18 29.4379 208.1C29.5986 208.019 29.1808 206.155 27.5414 204.467C25.9021 202.78 24.0057 202.33 23.9896 202.475Z" fill="#263238"/>
<path d="M31.1496 198.995C31.0291 199.116 32.1381 200.216 32.9175 201.928C33.697 203.64 33.8497 205.183 34.0184 205.142C34.1872 205.102 34.2917 203.479 33.4399 201.655C32.5881 199.831 31.23 198.866 31.1496 198.995Z" fill="#263238"/>
<path d="M38.2213 196.054C38.1168 196.183 39.4749 197.187 40.1499 199.059C40.8249 200.932 40.4954 202.555 40.6642 202.587C40.8329 202.619 40.9213 202.217 41.0178 201.526C41.1226 200.623 41.0068 199.707 40.6803 198.859C40.3671 198.003 39.8547 197.235 39.1856 196.617C38.6633 196.158 38.2615 195.99 38.2213 196.054Z" fill="#263238"/>
<path d="M41.4756 198.457C41.8061 198.414 42.1223 198.296 42.3998 198.111C43.2038 197.686 43.9143 197.104 44.4891 196.399C44.9583 195.923 45.2552 195.304 45.3328 194.64C45.3406 194.418 45.2789 194.2 45.1564 194.016C45.0339 193.831 44.8568 193.69 44.6498 193.611C44.2399 193.481 43.7963 193.506 43.4042 193.683C42.6168 194.074 41.9897 194.726 41.6305 195.528C41.2712 196.33 41.2023 197.232 41.4354 198.079C41.6859 198.911 42.1777 199.65 42.8487 200.202C43.5197 200.755 44.3395 201.095 45.2043 201.181C45.4222 201.202 45.642 201.175 45.8487 201.103C46.0553 201.031 46.244 200.915 46.4016 200.763C46.5426 200.593 46.6269 200.383 46.6427 200.162C46.6586 199.942 46.6052 199.722 46.49 199.533C46.1184 198.993 45.6075 198.562 45.0114 198.288C44.2171 197.849 43.3523 197.553 42.456 197.412C42.1301 197.344 41.7935 197.344 41.4676 197.412C42.6365 197.663 43.7626 198.082 44.8105 198.658C45.3173 198.923 45.7507 199.309 46.0722 199.783C46.1391 199.883 46.1707 200.004 46.162 200.124C46.1533 200.245 46.1047 200.359 46.0239 200.45C45.9135 200.542 45.7851 200.611 45.6467 200.651C45.5083 200.691 45.3631 200.702 45.2204 200.683C44.4799 200.581 43.784 200.27 43.2145 199.786C42.645 199.301 42.2257 198.665 42.006 197.95C41.8116 197.235 41.8645 196.475 42.1563 195.794C42.448 195.113 42.9614 194.55 43.6132 194.198C43.8822 194.064 44.1906 194.032 44.481 194.109C44.5966 194.15 44.6963 194.226 44.7656 194.328C44.8349 194.429 44.8704 194.549 44.8668 194.672C44.799 195.231 44.5605 195.756 44.1837 196.174C43.4226 197.089 42.5058 197.861 41.4756 198.457Z" fill="#263238"/>
<path d="M47.5991 201.583C48.2821 201.229 75.7728 190.035 75.7728 190.035L48.4509 176.503L32.0095 185.029L47.5991 201.583Z" fill="#263238"/>
<path d="M13.6475 168.499L14.0252 168.612L15.1101 168.973L19.2646 170.412L34.5328 175.772L84.8775 193.539L87.2882 194.286L87.0391 194.399L96.208 175.217L96.2884 175.466L64.619 156.1L55.5064 150.475L53.0956 148.964L52.4768 148.562C52.3402 148.474 52.2679 148.426 52.276 148.418L52.4929 148.538L53.1358 148.908L55.5867 150.362L64.7637 155.883L96.5053 175.121L96.658 175.217L96.5857 175.378L87.4409 194.584L87.3605 194.744L87.1918 194.688L84.781 193.941C83.5194 193.579 82.314 193.137 81.1006 192.695L77.4845 191.409L70.3888 188.878L57.0412 184.113L34.4363 176.077L19.2084 170.588L15.0779 169.078L14.0092 168.676C13.885 168.625 13.7642 168.566 13.6475 168.499Z" fill="#455A64"/>
<path d="M47.5988 201.583C47.2388 201.28 46.898 200.955 46.5782 200.61L43.9103 197.854C41.6683 195.516 38.5906 192.229 35.2075 188.653L31.8083 185.013L31.6235 184.812L31.8646 184.691L40.2058 180.673L42.6165 179.532C42.9042 179.387 43.2023 179.263 43.5085 179.163C43.2585 179.353 42.9891 179.518 42.7049 179.653L40.3665 180.842L32.0896 185.021L32.1458 184.699L35.561 188.331C38.9441 191.94 41.9897 195.226 44.1755 197.621L46.747 200.466C47.0645 200.811 47.3497 201.185 47.5988 201.583Z" fill="#455A64"/>
<path d="M103.047 148.289C103.095 148.393 96.3286 151.334 87.9392 154.846C79.5498 158.358 72.7193 161.13 72.6711 161.026C72.6229 160.921 79.389 157.98 87.7785 154.46C96.1679 150.941 103.047 148.176 103.047 148.289Z" fill="#455A64"/>
<path d="M61.2602 65.487C60.6897 65.487 40.8652 65.3022 36.8633 69.3041C32.8615 73.3059 24.5524 134.595 24.5524 134.595C28.8275 135.399 31.6079 137.006 34.1954 138.276L67.8898 157.924L82.4749 150.346C82.9488 150.084 83.3588 149.72 83.6753 149.281C83.9918 148.841 84.207 148.337 84.3053 147.804C84.4037 147.272 84.3828 146.724 84.2442 146.201C84.1055 145.677 83.8525 145.191 83.5035 144.777L102.91 74.6318C100.037 72.4516 96.8509 70.7177 93.4599 69.4889C87.7786 67.3996 61.2602 65.487 61.2602 65.487Z" fill="#455A64"/>
<path d="M96.3847 71.9961C96.3847 71.9961 102.347 73.314 104.63 76.9944C109.981 85.6169 126.423 116.242 129.187 123.602C132.112 131.373 128.97 135.793 126.857 139.071C124.583 142.599 112.087 142.591 106.422 136.54C104.011 133.937 90.4623 121.666 90.4623 121.666L96.3847 71.9961Z" fill="#455A64"/>
<path d="M103.167 83.3672C103.108 83.5737 103.033 83.7752 102.942 83.9699L102.211 85.6735C101.608 87.1601 100.764 89.3218 99.8002 92.0218C97.8555 97.43 95.4769 104.992 92.9536 113.381C90.4304 121.771 88.2366 129.364 86.6053 134.909C85.8017 137.666 85.1106 139.891 84.6204 141.418L84.0418 143.178C83.9859 143.386 83.9106 143.587 83.8168 143.781C83.8486 143.568 83.897 143.359 83.9615 143.154C84.0901 142.709 84.2588 142.115 84.4677 141.37C84.9178 139.763 85.5445 137.561 86.324 134.829C87.883 129.3 90.0366 121.666 92.5518 113.261C95.067 104.855 97.5019 97.3094 99.5189 91.9254C100.523 89.2254 101.415 87.1039 102.066 85.6092L102.87 83.9378C102.95 83.7381 103.049 83.547 103.167 83.3672Z" fill="#263238"/>
<path d="M37.8114 68.6051C37.8114 68.6051 31.5514 72.165 29.2612 74.2302C26.971 76.2954 3.3134 110.054 0.283881 120.573C-1.47597 126.664 5.23398 139.264 12.4663 138.654C21.9245 137.85 57.4108 124.245 57.4108 124.245L49.4473 106.912L29.3576 110.126L43.9427 95.469L38.5024 68.2113" fill="#455A64"/>
<path d="M121.979 119.987C121.854 119.928 121.735 119.855 121.626 119.77L120.645 119.095L117.085 116.555C114.096 114.386 109.982 111.356 105.449 107.989L102.42 105.731L102.701 105.691C99.8164 109.46 97.2449 112.746 95.3725 115.069C94.4359 116.359 93.3901 117.566 92.2466 118.677L95.1636 114.9L102.396 105.442L102.516 105.281L102.677 105.402L105.715 107.652C110.247 111.019 114.329 114.08 117.278 116.322L120.726 118.966L121.658 119.705C121.775 119.787 121.883 119.881 121.979 119.987Z" fill="#263238"/>
<path d="M65.8162 100.781L49.9052 107.909L56.2535 121.706L66.2019 115.141L65.8162 100.781Z" fill="#B2655F"/>
<path d="M80.8512 102.131L91.4987 94.8985C91.8727 94.6415 92.3243 94.5223 92.7764 94.561L106.695 95.7503C106.967 95.7728 107.22 95.8986 107.402 96.1018C107.584 96.305 107.682 96.5703 107.675 96.8432C107.69 97.1174 107.645 97.3917 107.544 97.647C107.443 97.9023 107.287 98.1325 107.088 98.3218L84.4834 114.048L67.6081 111.372L80.8512 102.131Z" fill="#618BF8"/>
<path d="M65.8165 100.781C65.8165 100.781 71.5621 96.5215 72.9121 96.2885C74.2621 96.0554 80.3292 96.0795 80.3292 96.0795L85.44 98.9966L82.2739 101.142C80.0801 100.66 79.4533 99.8082 79.4533 99.8082L75.9175 100.041L65.8165 100.781Z" fill="#B2655F"/>
<path d="M72.2772 98.9326L81.3497 102.091L94.4 103.931C94.4233 104.66 94.1664 105.37 93.6821 105.916C93.1979 106.461 92.523 106.801 91.7963 106.864C90.1892 107.033 87.473 107.218 87.473 107.218C87.473 107.218 86.8061 109.628 84.773 110.151C84.3071 111.066 83.6361 111.86 82.8122 112.473C82.687 112.55 82.5518 112.61 82.4105 112.65C81.1569 113.011 78.6577 116.411 76.9862 116.869C75.3148 117.327 66.186 115.173 66.186 115.173L65.8003 100.821L72.2772 98.9326Z" fill="#B2655F"/>
<path d="M74.9209 106.342C74.9209 106.302 75.6441 106.494 76.7932 106.727C78.3025 107.027 79.83 107.226 81.3656 107.322C82.8959 107.428 84.4318 107.428 85.9621 107.322C87.1434 107.242 87.8666 107.137 87.8747 107.177C87.7108 107.236 87.541 107.276 87.3684 107.298C87.047 107.362 86.5648 107.435 85.9782 107.499C84.4404 107.657 82.8919 107.684 81.3495 107.579C79.8035 107.487 78.2683 107.261 76.7611 106.904C76.1825 106.768 75.7164 106.639 75.403 106.535C75.2356 106.488 75.0739 106.424 74.9209 106.342Z" fill="#8E4842"/>
<path d="M76.7048 110.062C76.743 110.365 76.7128 110.672 76.6164 110.962C76.5342 111.293 76.365 111.595 76.1262 111.838C75.9654 111.979 75.7781 112.086 75.5752 112.154C75.3724 112.221 75.1581 112.248 74.9449 112.232C74.5353 112.198 74.1364 112.084 73.7717 111.894C73.4422 111.725 73.169 111.549 72.9279 111.42C72.4618 111.139 72.1243 111.034 72.1243 110.994C72.4255 111.013 72.7177 111.104 72.9761 111.259C73.5739 111.625 74.2371 111.871 74.9289 111.983C75.1099 112 75.2926 111.981 75.4663 111.927C75.6401 111.873 75.8015 111.785 75.9414 111.669C76.1622 111.46 76.3255 111.197 76.4155 110.906C76.4955 110.619 76.5921 110.337 76.7048 110.062Z" fill="#8E4842"/>
<path d="M83.415 110.93C83.0955 111.059 82.7605 111.145 82.4185 111.187C81.6209 111.33 80.8161 111.429 80.0078 111.485C79.1861 111.531 78.3625 111.531 77.5408 111.485C77.1972 111.491 76.8542 111.453 76.5202 111.372C76.5202 111.292 78.0792 111.372 79.9917 111.203C81.9042 111.035 83.3989 110.882 83.415 110.93Z" fill="#8E4842"/>
<path d="M76.528 114.723C76.0943 115.066 75.5795 115.291 75.0333 115.377C74.4871 115.463 73.928 115.406 73.4101 115.213C73.4101 115.133 74.1333 115.269 75.0172 115.133C75.9012 114.996 76.528 114.659 76.528 114.723Z" fill="#8E4842"/>
<path d="M79.7986 114.562C79.7986 114.626 79.3727 114.739 78.8263 114.819C78.4934 114.898 78.1467 114.898 77.8138 114.819C78.1156 114.657 78.4516 114.569 78.7942 114.562C79.3406 114.498 79.7906 114.49 79.7986 114.562Z" fill="#8E4842"/>
<path d="M81.3498 102.091C79.8926 101.746 78.4697 101.27 77.0989 100.668C75.9417 100.218 74.9051 99.7923 74.1658 99.4548C73.7532 99.3011 73.3617 99.0959 73.0006 98.8441C73.4203 98.9654 73.8312 99.1158 74.2301 99.2941L77.1873 100.435L80.1364 101.584C80.9079 101.849 81.3498 102.026 81.3498 102.091Z" fill="#8E4842"/>
<path d="M94.6811 105.305C94.6811 105.305 93.6767 104.959 94.7615 103.376C95.8463 101.793 98.8839 103.714 98.8839 103.714L102.765 106.02C102.765 106.02 103.633 108.037 102.556 108.576L101.753 109.556C101.753 109.556 103.271 111.091 102.661 112.433C102.471 112.82 102.166 113.139 101.788 113.347C101.409 113.554 100.976 113.639 100.547 113.59C100.547 113.59 100.724 116.306 99.8402 117.351C99.4301 117.918 98.8322 118.323 98.1526 118.492C97.8689 119.211 97.4163 119.852 96.8331 120.359C96.2499 120.867 95.5532 121.227 94.8017 121.409C92.198 122.076 90.832 122.124 90.1248 121.023C89.6483 120.242 89.2627 119.409 88.9757 118.54C88.9757 118.54 83.3908 115.607 83.2702 114.12C83.1497 112.634 83.4068 112.513 83.4068 112.513C83.2827 112.166 83.2288 111.797 83.2481 111.429C83.2674 111.061 83.3596 110.7 83.5193 110.368C84.0818 109.459 86.2997 110.255 86.2997 110.255L93.4275 111.926C93.4275 111.926 87.7221 109.251 87.0471 108.375C86.372 107.499 87.0953 106.422 89.3855 106.695C91.6757 106.968 98.5946 108.262 98.5946 108.262C98.4169 107.897 98.138 107.59 97.791 107.378C97.333 107.185 95.9026 106.358 95.9026 106.358L94.6811 105.305Z" fill="#B2655F"/>
<path d="M96.3849 116.129C96.3849 116.193 93.4759 115.454 89.9562 114.482C86.4365 113.509 83.5276 112.658 83.5677 112.593C83.6079 112.529 86.4767 113.268 89.9964 114.241C93.5161 115.213 96.401 116.065 96.3849 116.129Z" fill="#8E4842"/>
<path d="M92.9856 120.01C92.2716 119.926 91.5718 119.747 90.9043 119.48C90.421 119.323 89.9462 119.14 89.4819 118.934C89.3362 118.871 89.1964 118.796 89.0641 118.709C89.0285 118.683 88.9961 118.654 88.9676 118.62C88.9676 118.62 88.9676 118.548 88.9676 118.564C88.9676 118.58 89.8516 118.869 90.9686 119.239C91.6645 119.43 92.34 119.688 92.9856 120.01Z" fill="#8E4842"/>
<path d="M99.0927 112.995C99.0927 113.059 97.6865 112.778 95.9668 112.497C94.2471 112.216 92.8408 112.031 92.8489 111.958C93.9092 111.943 94.9681 112.043 96.007 112.256C97.06 112.386 98.0951 112.634 99.0927 112.995Z" fill="#8E4842"/>
<path d="M100.837 109.323C100.788 109.387 100.226 108.986 99.4384 108.704C98.6509 108.423 97.9678 108.351 97.9678 108.278C98.495 108.183 99.0388 108.25 99.5268 108.471C100.038 108.619 100.494 108.915 100.837 109.323Z" fill="#8E4842"/>
<path d="M107.064 97.0441H106.807L106.06 96.9557C105.417 96.8673 104.453 96.7468 103.336 96.6182C101.029 96.353 97.8312 96.0718 94.2873 95.9914C93.4511 95.8781 92.5998 95.9776 91.8123 96.2807C91.4621 96.4832 91.1241 96.706 90.7998 96.9477L89.8355 97.6308L86.5006 99.9853L84.2425 101.552L83.6157 101.97C83.4791 102.067 83.3987 102.107 83.3907 102.099C83.4543 102.039 83.5214 101.982 83.5916 101.93L84.1862 101.48L86.4042 99.8727L89.7069 97.462L90.6632 96.7709C90.9961 96.5222 91.3421 96.2915 91.6998 96.0798C92.0956 95.8766 92.5326 95.7667 92.9775 95.7584C93.4195 95.7584 93.8534 95.7584 94.2954 95.7584C97.3243 95.8337 100.347 96.067 103.352 96.4575C104.509 96.6102 105.441 96.7629 106.076 96.8754L106.815 97.012C106.899 97.0096 106.984 97.0204 107.064 97.0441Z" fill="#263238"/>
<path d="M98.3456 98.2816C98.2696 98.1806 98.1669 98.103 98.0489 98.0575C97.931 98.0121 97.8027 98.0006 97.6786 98.0245H97.5661C97.3547 98.0615 97.162 98.1692 97.0197 98.3299C96.9355 98.4331 96.8895 98.5623 96.8895 98.6955C96.8895 98.8287 96.9355 98.9579 97.0197 99.0611C97.1266 99.165 97.2652 99.2301 97.4134 99.2459C97.5539 99.2731 97.6987 99.2692 97.8375 99.2345C97.9763 99.1998 98.1059 99.1351 98.217 99.045C98.3142 98.9464 98.3786 98.8202 98.4016 98.6836C98.4246 98.547 98.4051 98.4067 98.3456 98.2816Z" fill="white"/>
<path d="M66.7084 21.0088L65.1655 20.2052C64.4789 19.7299 63.6368 19.5344 62.811 19.6588C62.0476 19.8758 61.5172 20.607 60.7297 20.6874C59.8136 20.7919 59.0583 19.9642 58.1422 20.0124C57.2261 20.0606 56.5913 20.816 55.7314 20.816C55.0885 20.816 54.4055 20.3579 53.851 20.6713C53.7385 20.7356 53.6421 20.824 53.5376 20.8963C53.1987 21.0526 52.8265 21.1233 52.4539 21.1023C52.0812 21.0813 51.7194 20.9691 51.4001 20.7758C50.7604 20.3855 49.9962 20.2533 49.2626 20.4061C48.8341 20.6219 48.4562 20.9259 48.1536 21.2981C47.9954 21.4827 47.7955 21.627 47.5706 21.7192C47.3457 21.8114 47.1021 21.8489 46.8598 21.8285C46.5946 21.7722 46.3777 21.6035 46.1125 21.5392C45.3089 21.3303 44.5937 22.2142 43.7499 22.4392C42.9062 22.6642 42.0624 22.2624 41.3392 22.616C41.0734 22.7526 40.8665 22.9812 40.757 23.2593C40.6476 23.5373 40.6432 23.8457 40.7445 24.1267C40.8736 24.4032 41.0687 24.6438 41.3125 24.8274C41.5562 25.0109 41.8413 25.1318 42.1428 25.1794C42.7739 25.2908 43.4227 25.2439 44.0312 25.0428C44.514 24.8418 45.0277 24.7249 45.55 24.6973C46.7473 24.7375 47.6875 25.975 48.8608 25.7178C49.4016 25.5169 49.8943 25.2048 50.3072 24.8018C50.9864 24.3135 51.8011 24.0495 52.6376 24.0464C53.1875 24.1187 53.746 24.0887 54.285 23.958C54.9198 23.7008 55.2814 23.0339 55.9404 22.8571C56.5993 22.6803 57.3547 23.1062 58.0859 23.0339C58.56 22.9937 59.002 22.7285 59.4842 22.7044C60.1672 22.6642 60.786 23.1062 61.469 23.0499C62.1521 22.9937 62.7548 22.4151 63.4539 22.4714C63.7276 22.5198 63.9965 22.5924 64.2575 22.6883C64.3911 22.7353 64.5342 22.7489 64.6742 22.7279C64.8143 22.7069 64.9471 22.6519 65.0611 22.5678C65.2137 22.4231 65.262 22.1901 65.4468 22.0856C65.5939 22.0236 65.7562 22.0068 65.9129 22.0374L68.179 22.2705L66.7084 21.0088Z" fill="#263238"/>
<path d="M69.1434 20.9285C68.3799 20.366 67.3594 19.7793 66.4995 20.2535C66.1861 20.4222 65.9531 20.7035 65.6397 20.8561C64.9165 21.1937 64.0326 20.7517 63.2772 20.9606C62.6263 21.1454 62.1923 21.7642 61.5896 22.0455C60.6173 22.5276 59.1789 22.2463 58.5842 23.0981C58.2548 23.5642 58.1985 24.3116 57.628 24.4401C57.4216 24.4609 57.2131 24.4362 57.0172 24.3678C56.3224 24.1977 55.5996 24.1758 54.8958 24.3035C54.4936 24.3572 54.1133 24.5182 53.7948 24.7696C53.2163 25.2919 53.2002 26.1839 52.6457 26.7304C51.8421 27.5339 50.3394 27.1563 49.2787 27.6786C48.8036 27.9782 48.3689 28.3374 47.9849 28.7474C47.1375 29.3997 46.2213 29.9575 45.2527 30.4108C44.2804 30.8585 43.4473 31.561 42.842 32.4439C42.56 32.8657 42.4361 33.3735 42.492 33.8777C42.5478 34.382 42.7799 34.8503 43.1473 35.2002C43.3332 35.3627 43.5685 35.4575 43.8151 35.4692C44.0618 35.4809 44.305 35.4087 44.5054 35.2644C44.6259 35.1519 44.7063 34.9912 44.8188 34.8627C45.0975 34.6435 45.4171 34.4823 45.759 34.3885C46.0885 34.26 46.434 34.0109 46.434 33.6733C46.434 33.4644 46.3135 33.2153 46.4822 33.0707C46.5568 33.0225 46.6427 32.9948 46.7313 32.9903C47.5831 32.9019 48.6278 32.9421 49.0858 32.251C49.238 31.9245 49.3539 31.5822 49.4314 31.2305C49.551 30.9418 49.7396 30.6869 49.9805 30.488C50.2215 30.289 50.5075 30.1522 50.8135 30.0893C51.3359 29.9688 51.9225 30.0492 52.3404 29.7277C52.7582 29.4063 52.8306 28.675 53.2565 28.2732C53.9716 27.5982 55.3859 28.0884 56.0288 27.3572C56.1895 27.1723 56.2779 26.9393 56.4788 26.8027C57.0574 26.425 57.7565 27.2045 58.4396 27.0759C59.1226 26.9473 59.2432 26.2723 59.653 25.8866C60.2627 25.4794 60.9324 25.1703 61.6379 24.9705C62.4816 24.5607 63.0924 23.7651 63.9843 23.4999C64.7879 23.2669 65.704 23.4276 66.2745 22.8812C66.4915 22.6722 66.6442 22.3749 66.9415 22.2785C67.1165 22.2423 67.297 22.2423 67.4719 22.2785C68.3546 22.394 69.2505 22.2131 70.0193 21.7642L69.1434 20.9285Z" fill="#263238"/>
<path d="M67.8413 22.9697C66.8707 22.8023 65.8746 22.8602 64.93 23.1389C63.9853 23.4176 63.1173 23.9095 62.3929 24.5769C62.093 24.8955 61.7461 25.1665 61.3644 25.3805C60.7132 25.5731 60.0331 25.6493 59.3554 25.6055C58.6034 25.6884 57.8909 25.9854 57.3027 26.4611C56.7144 26.9369 56.275 27.5714 56.0366 28.2895C55.7312 29.2136 55.6187 30.427 54.7267 30.7484C54.5581 30.7917 54.394 30.8509 54.2365 30.9252C53.6419 31.2949 54.0517 32.2431 54.0437 32.9744C54.0437 34.1798 52.6937 35.0074 52.6454 36.1887C52.6578 36.6321 52.7647 37.0677 52.9588 37.4664C53.4249 38.6182 53.9365 39.7432 54.4937 40.8415C54.7428 41.3317 55.0723 41.8781 55.6026 41.9504C56.4062 42.0549 56.8402 41.1468 57.0652 40.3433C57.2887 39.8087 57.3059 39.2102 57.1134 38.6638C56.8884 38.2379 56.4303 37.9887 56.2294 37.5468C55.916 36.8476 56.4223 36.0682 56.7839 35.4012C57.5133 34.0468 57.7328 32.4759 57.4027 30.9734C58.2063 30.8208 58.6321 29.6797 59.4679 29.5189C59.7027 29.5058 59.9363 29.4763 60.167 29.4306C60.7215 29.2055 60.7858 28.3618 61.2759 28.0162C61.7661 27.6707 62.8831 27.9359 63.1563 27.2528C63.2367 27.0359 63.1965 26.7787 63.3331 26.6019C63.4457 26.4712 63.6036 26.388 63.7751 26.3689L65.8001 25.8626C66.1936 25.7989 66.5643 25.6357 66.8769 25.3885C67.3993 24.8903 67.4796 23.9421 68.1386 23.6849L67.8413 22.9697Z" fill="#263238"/>
<path d="M69.9869 18.9434C69.9065 17.7541 69.6815 16.3237 68.6288 15.8416C68.0101 15.5523 67.2547 15.705 66.644 15.3916C65.4708 14.805 65.3743 12.9085 64.2332 12.3058C63.0921 11.7031 61.5653 12.6353 60.6492 11.7513C60.1751 11.2933 60.1108 10.5299 59.7251 9.99147C59.4652 9.70367 59.1459 9.47563 58.7894 9.32303C58.4329 9.17043 58.0475 9.09691 57.6599 9.10752C56.8924 9.14042 56.1252 9.03704 55.3938 8.80216C54.1884 8.2718 53.4169 6.77712 52.1232 6.67265C51.0223 6.59229 50.1624 7.55661 49.4713 8.44055C49.2803 8.65018 49.1449 8.90436 49.0776 9.17985C49.0668 9.42958 49.1286 9.67707 49.2556 9.8924C49.3825 10.1077 49.5691 10.2817 49.7928 10.3933C50.6687 10.9076 51.7937 10.8272 52.6053 11.4299C52.8804 11.6858 53.1731 11.9221 53.4812 12.137C53.9473 12.3862 54.5339 12.3299 54.9839 12.6112C55.8598 13.1496 55.8438 14.6201 56.7197 15.1666C57.5956 15.713 58.6162 15.0701 59.5644 15.2871C60.8501 15.5925 61.5573 17.3845 62.8752 17.4327C63.451 17.3461 64.0202 17.2199 64.5788 17.055C64.9556 17.0315 65.3309 17.1216 65.656 17.3135C65.9812 17.5055 66.2413 17.7905 66.4029 18.1318C66.6118 18.5818 66.644 19.1122 66.8931 19.5461C67.0571 19.8103 67.2791 20.0337 67.5422 20.1994C67.8053 20.365 68.1027 20.4687 68.4119 20.5024C69.0189 20.5639 69.632 20.5287 70.228 20.3979L69.9869 18.9434Z" fill="#263238"/>
<path d="M68.9903 22.6479C68.1867 21.1291 67.1983 19.5059 65.551 18.7987C64.6811 18.5558 63.8276 18.2579 62.9956 17.9068C62.3366 17.521 61.8705 16.9023 61.2518 16.4603C59.8133 15.4397 57.8285 15.504 56.0606 15.7853C54.2927 16.0665 52.4686 16.5085 50.7328 16.0826C49.1739 15.6969 47.8158 14.6442 46.2167 14.5478C45.3434 14.5502 44.4768 14.6996 43.6532 14.9897L40.7442 15.7933C40.4274 15.8529 40.1424 16.024 39.9407 16.2755C39.6273 16.7978 40.238 17.4005 40.8166 17.6416C41.7665 18.0362 42.8101 18.1478 43.822 17.963C44.5999 17.7096 45.4147 17.5874 46.2327 17.6014C46.7772 17.7441 47.3137 17.9158 47.8399 18.1157C48.5284 18.2364 49.2327 18.2364 49.9212 18.1157L53.1356 17.7782C53.9561 17.6193 54.8047 17.6916 55.5865 17.9871C56.1651 18.2684 56.6231 18.7907 57.266 18.8711C57.9089 18.9514 58.6642 18.421 59.3794 18.5255C60.2312 18.6621 60.6571 19.6104 61.4366 19.972C62.3527 20.3979 63.5581 19.8997 64.442 20.3898C65.0447 20.7193 65.3019 21.3943 65.6876 21.9488C66.0095 22.4141 66.4291 22.8035 66.9171 23.0899C67.5692 23.4315 68.2636 23.6855 68.9823 23.8453L68.9903 22.6479Z" fill="#263238"/>
<path d="M70.6941 15.8979C70.3083 15.3676 69.7217 14.8292 69.8905 14.1863C69.9708 13.8729 70.228 13.6157 70.2843 13.2943C70.3807 12.7157 69.7941 12.2657 69.5771 11.6871C69.3601 11.1086 69.5771 10.2407 69.2075 9.64604C68.8378 9.05138 67.986 8.93084 67.2788 8.75405C66.8859 8.68675 66.5158 8.52306 66.2017 8.27764C65.8875 8.03222 65.6392 7.71273 65.4788 7.34778C65.3945 6.81646 65.3622 6.27819 65.3824 5.7406C65.2569 5.05321 64.8982 4.43011 64.3668 3.97633C63.8355 3.52256 63.1639 3.26585 62.4654 3.24948C62.0585 3.28206 61.6492 3.23568 61.26 3.11287C60.5769 2.79144 60.4564 1.91553 60.0305 1.26462C59.7688 0.817454 59.3773 0.460406 58.908 0.240827C58.4387 0.0212478 57.9138 -0.0504857 57.4028 0.0351357C56.9206 0.131566 56.3902 0.637826 56.6715 1.03962C56.784 1.20034 56.9929 1.26462 57.1456 1.3932C57.6921 1.85928 57.2983 2.79947 57.6197 3.4343C57.9412 4.06914 58.9698 4.2379 59.2832 4.91291C59.5242 5.43524 59.243 6.08614 59.468 6.61651C59.7492 7.26742 60.593 7.4201 61.3001 7.4201C62.0073 7.4201 62.8511 7.61296 63.1163 8.22368C63.1982 8.5225 63.2441 8.83005 63.2529 9.13977C63.2993 9.40912 63.4067 9.66427 63.5668 9.88573C63.727 10.1072 63.9357 10.2891 64.177 10.4175C64.86 10.763 65.7842 10.6987 66.2261 11.3496C66.6681 12.0005 66.0252 13.1175 66.4351 13.8809C66.7324 14.4354 67.4476 14.5801 67.986 14.9176C68.1154 14.9874 68.2152 15.1015 68.2673 15.239C68.2826 15.3877 68.2487 15.5373 68.1708 15.6649C67.7449 16.5328 67.2065 17.5292 67.6163 18.3971C67.8122 18.7353 68.0619 19.0393 68.3556 19.2971C69.2331 20.198 69.8737 21.3024 70.22 22.5115L70.9673 19.2408C71.2195 18.7088 71.327 18.1196 71.279 17.5327C71.2311 16.9459 71.0293 16.382 70.6941 15.8979Z" fill="#263238"/>
<path d="M74.8407 4.85661C74.988 4.38939 74.9747 3.88633 74.8028 3.42758C74.631 2.96883 74.3105 2.5808 73.8925 2.32532C73.677 2.2128 73.4401 2.14704 73.1974 2.13236C72.9547 2.11767 72.7116 2.15439 72.484 2.2401C72.2565 2.32581 72.0496 2.45858 71.8769 2.62974C71.7042 2.8009 71.5695 3.0066 71.4818 3.23336C71.1603 4.30213 72.0603 5.55574 71.4818 6.52004C71.2851 6.75158 71.1203 7.00831 70.9916 7.28345C70.7907 7.9906 71.6746 8.58525 71.6827 9.32455C71.6907 10.0639 70.6621 10.5862 70.4532 11.3737C70.2442 12.1612 71.1201 13.23 70.7907 14.1059C70.6761 14.3421 70.5331 14.5634 70.3648 14.7648C69.4246 16.147 69.9067 17.9792 70.421 19.5864L72.5505 19.273C72.1568 17.7944 74.2381 16.3158 73.5309 14.9657C73.1934 14.3229 72.2693 13.8568 72.4782 13.1577C72.5499 12.9759 72.6594 12.8115 72.7996 12.6755L74.7845 10.5058C75.1101 10.2176 75.333 9.83112 75.4193 9.40491C75.5077 8.46472 74.3345 7.85399 74.1818 6.91379C74.1175 6.17449 74.6238 5.52359 74.8407 4.85661Z" fill="#263238"/>
<path d="M75.572 16.9105C75.3711 16.2114 74.463 16.0024 73.7478 16.1069C71.771 16.4123 70.3245 18.0677 69.0629 19.6105C67.6232 21.2755 66.3174 23.0516 65.1575 24.9222C64.8832 25.3292 64.6971 25.7891 64.611 26.2723C64.5696 26.514 64.594 26.7624 64.6816 26.9915C64.7693 27.2206 64.917 27.4218 65.1093 27.5741C65.2081 27.6432 65.3203 27.6907 65.4387 27.7136C65.5571 27.7365 65.679 27.7342 65.7965 27.707C65.914 27.6797 66.0244 27.628 66.1206 27.5553C66.2168 27.4825 66.2966 27.3904 66.3548 27.2848L66.9414 27.1401C68.8657 23.8807 71.4167 21.0348 74.4469 18.7668C75.0657 18.2846 75.7809 17.6337 75.572 16.9105Z" fill="#FF725E"/>
<path d="M64.6993 47.1412C64.1188 43.2425 63.8741 39.3012 63.9681 35.3606C64.0722 31.4079 65.1545 27.5425 67.1181 24.1104C67.4315 23.5961 69.8905 20.2532 70.461 20.422C70.8709 20.5425 69.1271 23.7729 69.2717 24.1747C70.6057 28.0239 70.3405 32.2909 69.2717 36.2285C68.1682 40.0323 66.6426 43.7007 64.7234 47.1653" fill="#263238"/>
<path d="M82.2095 72.8077C82.772 70.0835 83.222 67.938 83.2461 67.938C83.2703 67.938 92.8008 68.8219 95.2276 59.653C96.4009 55.2252 98.0643 45.9117 99.4786 37.466C100.22 33.0818 99.2812 28.5793 96.8507 24.8561C94.4201 21.1328 90.6758 18.4621 86.3641 17.3763L85.4721 17.1513C75.7648 15.3111 68.7736 22.5193 67.1985 32.2748L60.6011 66.2183L75.7246 82.1132L82.2095 72.8077Z" fill="#B2655F"/>
<path d="M83.2464 67.938C79.0022 66.8596 75.1564 64.5867 72.1649 61.3888C72.1649 61.3888 73.4024 68.8139 82.7803 70.2925L83.2464 67.938Z" fill="#8E4842"/>
<path d="M94.7858 44.7626C94.7035 45.1076 94.4888 45.4063 94.1881 45.5943C93.8873 45.7823 93.5247 45.8443 93.1786 45.7671C93.0082 45.7382 92.8452 45.6754 92.6995 45.5824C92.5537 45.4895 92.428 45.3683 92.3299 45.226C92.2318 45.0836 92.1631 44.9231 92.1281 44.7538C92.0931 44.5845 92.0923 44.4099 92.1259 44.2403C92.21 43.8964 92.4251 43.599 92.7253 43.4114C93.0255 43.2237 93.3871 43.1607 93.7331 43.2358C93.904 43.2637 94.0676 43.3258 94.2139 43.4185C94.3602 43.5111 94.4864 43.6324 94.5847 43.775C94.683 43.9176 94.7515 44.0786 94.786 44.2483C94.8206 44.418 94.8205 44.5929 94.7858 44.7626Z" fill="#263238"/>
<path d="M96.5533 40.785C96.3524 40.9135 95.5408 39.9332 94.1425 39.5796C92.7443 39.226 91.5148 39.676 91.4023 39.459C91.3541 39.3626 91.5951 39.0974 92.1255 38.8805C92.8468 38.6159 93.6314 38.5767 94.3755 38.768C95.111 38.9495 95.7696 39.3604 96.2559 39.9412C96.6175 40.3832 96.6577 40.7287 96.5533 40.785Z" fill="#263238"/>
<path d="M81.9685 42.2957C81.8861 42.641 81.6718 42.9404 81.3714 43.1297C81.071 43.3189 80.7084 43.383 80.3613 43.3082C80.1908 43.2793 80.0279 43.2165 79.8822 43.1235C79.7364 43.0306 79.6107 42.9094 79.5126 42.767C79.4145 42.6247 79.3459 42.4642 79.3108 42.2949C79.2758 42.1256 79.275 41.951 79.3086 41.7814C79.3909 41.4364 79.6056 41.1377 79.9063 40.9497C80.207 40.7617 80.5696 40.6997 80.9158 40.7769C81.0859 40.8049 81.2486 40.8667 81.3944 40.9589C81.5401 41.051 81.6658 41.1715 81.764 41.3132C81.8622 41.4549 81.9309 41.6149 81.9661 41.7836C82.0012 41.9524 82.002 42.1266 81.9685 42.2957Z" fill="#263238"/>
<path d="M82.5711 37.8759C82.3621 38.0045 81.5505 37.0241 80.1603 36.6705C78.7701 36.3169 77.5326 36.767 77.4201 36.55C77.3638 36.4616 77.6049 36.1884 78.1433 35.9794C78.8601 35.7078 79.6436 35.6657 80.3853 35.8589C81.1226 36.0362 81.7824 36.4479 82.2657 37.0321C82.6032 37.4741 82.6675 37.8036 82.5711 37.8759Z" fill="#263238"/>
<path d="M84.9093 50.01C85.7165 49.9622 86.5264 50.0163 87.3201 50.1707C87.6897 50.2269 88.0513 50.243 88.1719 50.01C88.2889 49.6413 88.2889 49.2455 88.1719 48.8769C88.0513 47.9206 87.9308 46.9161 87.7942 45.8634C87.296 41.5803 87.0388 38.0928 87.2076 38.0767C87.3764 38.0606 87.9228 41.5161 88.421 45.7992C88.5415 46.8519 88.646 47.8563 88.7505 48.8206C88.8678 49.3128 88.808 49.8306 88.5817 50.2832C88.4965 50.3956 88.3874 50.4877 88.2624 50.553C88.1374 50.6183 87.9994 50.6551 87.8585 50.6609C87.6445 50.6689 87.4304 50.6446 87.2237 50.5885C86.4311 50.4932 85.6535 50.2988 84.9093 50.01Z" fill="#263238"/>
<path d="M80.5462 49.946C80.7793 49.9862 80.3935 51.5532 81.4382 52.9434C82.4829 54.3336 84.1543 54.5988 84.1061 54.8158C84.0579 55.0328 83.6722 55.0247 82.973 54.872C82.0725 54.6542 81.2766 54.1283 80.723 53.3854C80.1914 52.6739 79.9579 51.7832 80.0721 50.9023C80.1364 50.2434 80.4016 49.9059 80.5462 49.946Z" fill="#263238"/>
<path d="M83.9373 32.1222C83.6962 32.4758 82.3301 31.9374 80.6265 31.7204C78.9229 31.5035 77.4604 31.616 77.3318 31.2142C77.2756 31.0294 77.597 30.724 78.2318 30.4909C79.0671 30.2124 79.9553 30.1299 80.8277 30.2497C81.7 30.3696 82.533 30.6886 83.2623 31.182C83.8087 31.5758 84.0418 31.9535 83.9373 32.1222Z" fill="#263238"/>
<path d="M97.1563 35.9393C96.8268 36.1965 95.9348 35.6259 94.7455 35.3125C93.5562 34.9991 92.5276 34.983 92.383 34.5893C92.3267 34.4045 92.5597 34.1232 93.074 33.9223C93.7484 33.7074 94.4712 33.6964 95.1517 33.8909C95.8322 34.0853 96.4401 34.4764 96.8991 35.0152C97.2527 35.4491 97.3009 35.8107 97.1563 35.9393Z" fill="#263238"/>
<path d="M66.2424 39.3145C66.0978 39.21 60.3923 35.8591 59.0101 42.1913C57.628 48.5236 64.2816 48.62 64.3299 48.4272C64.3781 48.2343 66.2424 39.3145 66.2424 39.3145Z" fill="#B2655F"/>
<path d="M62.9155 45.6066C62.9155 45.6066 62.7869 45.6628 62.586 45.703C62.3074 45.754 62.0199 45.6965 61.7824 45.5423C61.1637 45.1485 60.8342 43.9351 61.0511 42.8181C61.1497 42.2714 61.3724 41.7545 61.7021 41.3074C61.8035 41.1219 61.9488 40.9642 62.1254 40.8479C62.3019 40.7317 62.5042 40.6604 62.7146 40.6404C62.8487 40.6332 62.9812 40.6736 63.0885 40.7544C63.1958 40.8353 63.2711 40.9514 63.3012 41.0824C63.3494 41.2752 63.3012 41.3958 63.3012 41.4118C63.3012 41.4279 63.4619 41.3395 63.47 41.0663C63.4689 40.9024 63.4122 40.7437 63.3092 40.6163C63.2373 40.5309 63.1491 40.4607 63.0497 40.4096C62.9504 40.3586 62.842 40.3278 62.7306 40.319C62.4598 40.3158 62.1925 40.3812 61.9537 40.5091C61.7148 40.6369 61.5122 40.8231 61.3646 41.0502C60.9652 41.5371 60.6895 42.1133 60.561 42.7297C60.3279 44.0155 60.7217 45.3575 61.5815 45.8235C61.7414 45.9079 61.9179 45.9559 62.0985 45.9643C62.279 45.9726 62.4592 45.941 62.6262 45.8717C62.8673 45.7592 62.9315 45.6226 62.9155 45.6066Z" fill="#8E4842"/>
<path d="M97.5661 26.0876C98.7152 25.734 96.3206 21.7643 94.0384 20.0929C90.583 17.5696 84.9739 15.2713 81.2453 15.5526C76.7613 15.866 72.7996 17.2401 69.8745 20.6554C67.0066 24.1546 65.1207 28.3535 64.4102 32.8217C64.0769 34.1607 64.1074 35.5645 64.4985 36.8878C65.0932 38.495 66.612 39.7164 66.1057 41.637C66.0087 41.9823 65.9815 42.3435 66.0256 42.6995C66.0698 43.0555 66.1844 43.3991 66.3629 43.7103C67.2629 45.1889 68.9263 44.321 69.8263 43.2924C71.7389 41.0986 72.5103 38.1655 73.2255 35.3369C73.8489 33.3602 74.1395 31.2936 74.0853 29.2216C73.9969 28.0966 73.7077 26.9876 73.6755 25.8626C73.6289 25.2994 73.7046 24.7328 73.8974 24.2016C74.0902 23.6704 74.3955 23.1871 74.7925 22.7849C74.9879 22.6326 75.1948 22.4956 75.4112 22.375C76.4576 21.7857 77.6422 21.4862 78.8429 21.5074C80.0435 21.5286 81.2168 21.8697 82.2417 22.4956C85.5525 24.5045 91.266 27.6626 93.1143 26.7867C95.7741 25.5171 96.5616 24.4965 96.5616 24.4965L97.5661 26.0876Z" fill="#263238"/>
<path d="M30.0086 134.186C30.1711 134.092 30.3436 134.016 30.5229 133.961L32.0256 133.374L37.6989 131.253L57.3385 124.02L57.226 124.294C55.6189 120.75 53.8188 116.893 51.9706 112.899L49.2625 106.992L49.4795 107.105L29.8077 110.126C26.2271 111.133 22.8053 112.637 19.6423 114.594C18.5173 115.285 17.6735 115.88 17.0949 116.282L16.4521 116.748C16.3832 116.809 16.3044 116.858 16.219 116.893L16.4199 116.708L17.0387 116.21C17.5932 115.776 18.4289 115.157 19.5459 114.442C22.6941 112.415 26.1214 110.858 29.7193 109.821L49.383 106.751H49.5357L49.608 106.888C50.484 108.808 51.4 110.785 52.3242 112.794C54.1563 116.812 55.9323 120.645 57.5555 124.197L57.6519 124.39L57.443 124.47L37.7471 131.542L32.0417 133.559L30.5148 134.081L30.0086 134.186Z" fill="#263238"/>
<path d="M41.7809 98.0725C41.3075 98.7797 40.7695 99.4415 40.1738 100.049C39.1291 101.231 37.6666 102.838 36.0032 104.582C34.3397 106.325 32.7888 107.86 31.6236 108.913C31.1652 109.341 30.6764 109.736 30.1611 110.094C29.9602 110.207 29.8236 110.319 29.6468 110.287C29.627 110.265 29.6161 110.236 29.6161 110.207C29.6161 110.177 29.627 110.148 29.6468 110.126V110.086C29.6468 110.086 29.6468 110.191 29.695 110.207C29.8385 110.153 29.9698 110.071 30.0807 109.966C30.4102 109.692 30.8843 109.25 31.4308 108.704C32.5477 107.595 34.0585 106.028 35.7139 104.292L39.9729 99.8484C40.5263 99.2084 41.131 98.6144 41.7809 98.0725Z" fill="#263238"/>
<path d="M45.6063 90.1331C45.5179 90.1331 45.775 88.8714 45.775 86.8384C45.7725 85.6533 45.6703 84.4706 45.4697 83.3026C44.9829 80.4312 43.9283 77.6856 42.3678 75.2266C41.7271 74.2248 41.0069 73.2762 40.2142 72.3899C38.8481 70.8872 37.8035 70.1318 37.8838 70.0675C38.1495 70.2031 38.3977 70.3704 38.6231 70.5657C38.9053 70.7702 39.1737 70.993 39.4267 71.2327C39.778 71.5337 40.1133 71.8529 40.4312 72.189C41.2684 73.0612 42.0243 74.008 42.6893 75.0176C43.4933 76.2597 44.1717 77.5787 44.7143 78.9552C45.2318 80.3428 45.6139 81.7772 45.8554 83.2383C46.0385 84.4318 46.1112 85.6396 46.0724 86.8464C46.0619 87.3087 46.027 87.77 45.9679 88.2286C45.9421 88.5774 45.8911 88.9238 45.8152 89.2652C45.7809 89.5619 45.7107 89.8533 45.6063 90.1331Z" fill="#263238"/>
<path d="M66.0816 150.057C66.0816 149.985 67.0941 150.057 68.7174 150.057C72.9562 149.959 77.0933 148.739 80.7069 146.521C82.0891 145.718 82.8766 145.043 82.9248 145.099C82.973 145.155 82.7641 145.3 82.4185 145.605C81.9252 146.024 81.4073 146.413 80.8676 146.77C79.0787 147.958 77.1234 148.873 75.0657 149.486C73.005 150.092 70.865 150.384 68.7174 150.354C68.0696 150.35 67.4227 150.305 66.7807 150.218C66.5413 150.197 66.306 150.143 66.0816 150.057Z" fill="#263238"/>
<path d="M78.039 132.313C77.8888 132.563 77.7079 132.792 77.5006 132.996C77.139 133.422 76.5925 134.017 75.8934 134.748C74.5193 136.203 72.5505 138.155 70.2683 140.189C67.9861 142.222 65.8405 143.973 64.2414 145.179C63.4378 145.781 62.7869 146.264 62.3208 146.577C62.0963 146.763 61.8476 146.917 61.5815 147.035C61.7714 146.814 61.9872 146.617 62.2244 146.448L64.0566 144.946C65.5995 143.684 67.7209 141.916 69.9951 139.883C72.2692 137.85 74.2541 135.938 75.6845 134.539L77.372 132.884C77.7818 132.498 78.0149 132.289 78.039 132.313Z" fill="#263238"/>
</svg>
